<svg xmlns="http://www.w3.org/2000/svg" width="474.923" height="289" viewBox="0 0 474.923 289">
  <g id="Email_capture-pana" data-name="Email capture-pana" transform="translate(-263.125 -78.164)">
    <g id="freepik--background-complete--inject-3" transform="translate(263.125 78.164)">
      <rect id="Rectangle_32" data-name="Rectangle 32" width="41.246" height="27.806" transform="translate(360.302 179.321) rotate(-32.4)" fill="#040506" opacity="0.2"/>
      <path id="Path_3344" data-name="Path 3344" d="M647.95,247.852l-.29-.43-.806-1.237c-.71-1.075-1.742-2.677-3.043-4.71l-10.892-17.01.215.054-34.795,22.129c0,.065.107-.527,0-.269h0l.065.1.118.2.247.387.495.785c.333.516.667,1.075.989,1.548l1.946,3.075c1.29,2.032,2.57,4.043,3.806,6.011l7.15,11.279-.247-.054,25.107-15.828,7.2-4.516,1.925-1.194.505-.3.183-.108-.151.108-.473.312-1.882,1.215-6.989,4.688L613.22,270.109l-.172.108-.108-.151c-2.269-3.581-4.667-7.355-7.172-11.279l-3.806-6-1.957-3.075-.979-1.548-.495-.785-.258-.387-.118-.194-.065-.108h0c-.065.247.075-.344.065-.28l34.838-22.075.14-.086.086.14c4.516,7.172,8.215,13.075,10.752,17.2,1.269,2.021,2.258,3.613,2.946,4.72l.763,1.226A1.3,1.3,0,0,1,647.95,247.852Z" transform="translate(-237.922 -67.172)" fill="#040506" opacity="0.2"/>
      <path id="Path_3345" data-name="Path 3345" d="M633.034,224.37a2.834,2.834,0,0,1-.1.505c-.086.376-.2.849-.344,1.452-.333,1.29-.8,3.1-1.355,5.3-1.2,4.527-2.839,10.752-4.667,17.623v.161H626.4l-1.29-.129-19-1.892-5.753-.624-1.559-.194a3.414,3.414,0,0,1-.548-.086,2.152,2.152,0,0,1,.548,0l1.57.108,5.774.495,19.01,1.785,1.29.118-.215.151c1.871-6.892,3.548-13.075,4.785-17.58.613-2.2,1.075-3.989,1.473-5.279l.419-1.43a3.953,3.953,0,0,1,.129-.484Z" transform="translate(-237.909 -67.163)" fill="#040506" opacity="0.2"/>
      <path id="Path_3346" data-name="Path 3346" d="M664.43,177.3c1.075,3.817.28,6.451-2.032,7.118a2.484,2.484,0,0,1-3.226-1.742,5.183,5.183,0,0,1-3.806,3.71,6.032,6.032,0,0,1-3.226-11.6,5.2,5.2,0,0,1,5.107,1.075l-.634-2.28,1.43-.344,2.387,8.527c.355,1.258,1.075,1.527,1.871,1.312,1.4-.387,1.806-2.366.957-5.376-1.484-5.279-6.258-7.72-11.7-6.2s-8.236,6.29-6.742,11.613,6.247,8.021,11.709,6.451a10.355,10.355,0,0,0,4.043-2.15l.688.989a11.451,11.451,0,0,1-4.409,2.355c-6.183,1.731-11.6-1.344-13.268-7.3s1.452-11.365,7.656-13.1S662.785,171.409,664.43,177.3Zm-6.226,2.011a4.451,4.451,0,1,0-3,5.71,4.3,4.3,0,0,0,3-5.71Z" transform="translate(-234.532 -71.265)" fill="#ebebeb"/>
      <rect id="Rectangle_33" data-name="Rectangle 33" width="24.752" height="36.72" transform="translate(433.791 174.916) rotate(-77.76)" fill="#040506" opacity="0.2"/>
      <path id="Path_3347" data-name="Path 3347" d="M707.32,226.143a2.426,2.426,0,0,1-.376.258l-1.129.7-4.183,2.516-13.978,8.236-.129.086-.1-.118-.742-.892-10.849-13.086-3.226-3.989-.882-1.075a3.14,3.14,0,0,1-.28-.4,1.983,1.983,0,0,1,.344.344l.914,1.075,3.344,3.925c2.828,3.355,6.677,7.946,10.935,13.021l.731.882h-.226l13.978-8.15,4.236-2.419,1.151-.634a1.741,1.741,0,0,1,.462-.28Z" transform="translate(-232.401 -67.614)" fill="#040506" opacity="0.2"/>
      <path id="Path_3348" data-name="Path 3348" d="M666.56,241.852a88.54,88.54,0,0,1,7.634-6.312,87.354,87.354,0,0,1,7.989-5.871,91.976,91.976,0,0,1-7.645,6.312A87.426,87.426,0,0,1,666.56,241.852Z" transform="translate(-232.769 -66.764)" fill="#040506" opacity="0.2"/>
      <path id="Path_3349" data-name="Path 3349" d="M700.517,249.211a12.689,12.689,0,0,1-1.4-2.247c-.806-1.43-1.871-3.409-3.032-5.613s-2.15-4.226-2.882-5.71a12.581,12.581,0,0,1-1.075-2.452,12.754,12.754,0,0,1,1.387,2.226c.8,1.43,1.882,3.419,3.032,5.634s2.15,4.236,2.9,5.72a12.458,12.458,0,0,1,1.064,2.441Z" transform="translate(-230.845 -66.499)" fill="#040506" opacity="0.2"/>
      <rect id="Rectangle_34" data-name="Rectangle 34" width="33.601" height="49.848" transform="translate(258.095 264.926) rotate(-64.95)" fill="#040506" opacity="0.2"/>
      <path id="Path_3350" data-name="Path 3350" d="M548.331,347.778s.075-.2.247-.57l.731-1.634,2.828-6.15c2.452-5.312,5.957-12.9,10.236-22.171l.1.269-45.16-21.064.323-.118h0v.065l-.065.129-.118.258-.237.505-.473,1.011c-.312.677-.624,1.344-.946,2.022l-1.86,3.978-3.721,7.817c-2.376,5.1-4.677,9.989-6.849,14.623l-.108-.29,32.451,15.279,9.29,4.408,2.473,1.183.634.312.226.118-.215-.075-.624-.28-2.452-1.075-9.29-4.3-32.677-15.15-.2-.1.1-.194,6.817-14.645q1.8-3.828,3.634-7.785c.624-1.312,1.237-2.645,1.86-3.989.323-.667.634-1.333.946-2.011l.473-1.011.236-.505.118-.258.065-.129v-.064h0l.323-.118,45.16,21.15.183.075-.086.183c-4.376,9.258-7.967,16.871-10.484,22.182-1.237,2.613-2.215,4.667-2.892,6.075l-.763,1.581C548.417,347.606,548.331,347.778,548.331,347.778Z" transform="translate(-245.085 -61.768)" fill="#040506" opacity="0.2"/>
      <path id="Path_3351" data-name="Path 3351" d="M561.54,317.327a2.764,2.764,0,0,1-.581.237l-1.7.581-6.29,2.064-20.978,6.72-.2.054-.086-.183-.72-1.387-10.419-20.6-3.107-6.258-.828-1.72a2.311,2.311,0,0,1-.247-.613,5.8,5.8,0,0,1,.344.57c.226.43.527.979.9,1.677l3.226,6.193L531.4,325.187l.71,1.4-.29-.129,21.021-6.559,6.344-1.925,1.72-.505a3.472,3.472,0,0,1,.634-.14Z" transform="translate(-244.069 -61.757)" fill="#040506" opacity="0.2"/>
      <path id="Path_3352" data-name="Path 3352" d="M503.08,325.581c-.065-.14,5.376-2.817,12.064-5.978s12.226-5.6,12.29-5.462-5.376,2.817-12.054,5.968S503.155,325.721,503.08,325.581Z" transform="translate(-245.07 -60.409)" fill="#040506" opacity="0.2"/>
      <path id="Path_3353" data-name="Path 3353" d="M545.589,345.821a22.448,22.448,0,0,1-1.075-3.419c-.624-2.151-1.43-5.086-2.3-8.355s-1.613-6.247-2.151-8.408a24.541,24.541,0,0,1-.742-3.559,21,21,0,0,1,1.075,3.409c.613,2.15,1.43,5.086,2.3,8.376s1.624,6.258,2.151,8.43a23.583,23.583,0,0,1,.742,3.527Z" transform="translate(-242.343 -59.811)" fill="#040506" opacity="0.2"/>
      <rect id="Rectangle_35" data-name="Rectangle 35" width="36.042" height="53.472" transform="translate(346.257 65.769) rotate(-68.61)" fill="#040506" opacity="0.2"/>
      <path id="Path_3354" data-name="Path 3354" d="M647.184,127.622a3.054,3.054,0,0,1-.613.29l-1.774.742-6.591,2.645-22,8.6-.2.086-.118-.194-.849-1.441-12.57-21.333-3.753-6.451c-.419-.731-.742-1.323-1-1.774a2.993,2.993,0,0,1-.312-.634,3.463,3.463,0,0,1,.4.581c.279.441.645,1.011,1.075,1.731.957,1.559,2.279,3.742,3.9,6.451,3.226,5.484,7.753,12.967,12.688,21.247l.86,1.441-.312-.108,22.053-8.462,6.645-2.495,1.817-.656a3.949,3.949,0,0,1,.656-.269Z" transform="translate(-237.973 -75.907)" fill="#040506" opacity="0.2"/>
      <path id="Path_3355" data-name="Path 3355" d="M585.12,140.573c-.075-.14,5.527-3.366,12.505-7.2s12.709-6.839,12.785-6.7-5.527,3.355-12.516,7.193S585.2,140.7,585.12,140.573Z" transform="translate(-238.897 -74.515)" fill="#040506" opacity="0.2"/>
      <path id="Path_3356" data-name="Path 3356" d="M632.053,159.221a27.214,27.214,0,0,1-1.409-3.591c-.8-2.237-1.871-5.376-3.021-8.8s-2.151-6.57-2.86-8.849c-.355-1.14-.634-2.064-.817-2.71a3.487,3.487,0,0,1-.226-1.075,26.47,26.47,0,0,1,1.4,3.57c.8,2.236,1.871,5.376,3.021,8.806s2.151,6.6,2.882,8.882c.355,1.14.635,2.064.807,2.7a3.886,3.886,0,0,1,.226,1.064Z" transform="translate(-235.992 -73.948)" fill="#040506" opacity="0.2"/>
      <rect id="Rectangle_36" data-name="Rectangle 36" width="53.472" height="36.042" transform="translate(362.06 253.445) rotate(-11.73)" fill="#040506" opacity="0.2"/>
      <path id="Path_3357" data-name="Path 3357" d="M652.193,303.77a3.68,3.68,0,0,1-.344.581c-.28.4-.645.935-1.075,1.591l-4.075,5.817L632.978,331l-.129.172-.194-.1-1.505-.742-22.182-11-6.688-3.387-1.806-.935a3.735,3.735,0,0,1-.624-.366,4.044,4.044,0,0,1,.667.269l1.849.86L609.129,319l22.236,10.828,1.505.742-.323.075,13.838-19.1,4.215-5.72,1.161-1.538a3.955,3.955,0,0,1,.43-.516Z" transform="translate(-237.789 -61.189)" fill="#040506" opacity="0.2"/>
      <path id="Path_3358" data-name="Path 3358" d="M606.76,348.724c-.14-.065,2.8-5.828,6.537-12.9s6.9-12.666,7.043-12.591-2.8,5.828-6.548,12.9S606.9,348.789,606.76,348.724Z" transform="translate(-237.269 -59.725)" fill="#040506" opacity="0.2"/>
      <path id="Path_3359" data-name="Path 3359" d="M656.782,337.735a27.047,27.047,0,0,1-3.14-2.237c-1.892-1.441-4.484-3.462-7.333-5.72s-5.376-4.3-7.236-5.849c-.914-.753-1.656-1.376-2.15-1.828a3.87,3.87,0,0,1-.753-.731,26.492,26.492,0,0,1,3.118,2.226c1.892,1.441,4.495,3.462,7.355,5.72s5.376,4.3,7.258,5.86c.914.763,1.656,1.387,2.15,1.828S656.815,337.7,656.782,337.735Z" transform="translate(-235.056 -59.864)" fill="#040506" opacity="0.2"/>
      <path id="Path_3499" data-name="Path 3499" d="M0,0H65.977V44.472H0Z" transform="translate(0 13.413) rotate(-11.73)" fill="#040506" opacity="0.2"/>
      <path id="Path_3360" data-name="Path 3360" d="M327.731,78.18a5.536,5.536,0,0,1-.441.71c-.333.505-.785,1.151-1.333,1.968l-5.032,7.172L304.011,111.76l-.161.226-.247-.118-1.86-.914L274.377,97.341l-8.258-4.183L263.893,92a4.3,4.3,0,0,1-.763-.452,4.505,4.505,0,0,1,.817.333l2.28,1.075,8.355,4,27.451,13.4,1.817.968-.409.108c6.688-9.258,12.7-17.559,17.086-23.655l5.193-7.064,1.43-1.892a3.75,3.75,0,0,1,.581-.634Z" transform="translate(-263.124 -78.163)" fill="#040506" opacity="0.2"/>
      <path id="Path_3361" data-name="Path 3361" d="M271.67,133.649c-.172-.086,3.441-7.193,8.064-15.871s8.516-15.634,8.688-15.548-3.495,7.193-8.075,15.881S271.832,133.735,271.67,133.649Z" transform="translate(-262.482 -76.353)" fill="#040506" opacity="0.2"/>
      <path id="Path_3362" data-name="Path 3362" d="M333.391,120.083a32.857,32.857,0,0,1-3.871-2.763c-2.344-1.774-5.538-4.3-9.054-7.043s-6.656-5.376-8.924-7.215c-1.14-.946-2.054-1.71-2.677-2.258s-.957-.871-.925-.914a33.42,33.42,0,0,1,3.849,2.753c2.333,1.774,5.548,4.3,9.064,7.064s6.688,5.376,8.957,7.226c1.14.946,2.043,1.71,2.667,2.258S333.423,120.051,333.391,120.083Z" transform="translate(-259.753 -76.529)" fill="#040506" opacity="0.2"/>
    </g>
    <g id="freepik--Email--inject-3" transform="translate(310.483 108.976)">
      <path id="Path_3468" data-name="Path 3468" d="M495.424,181.966c-1.226,3.774-3.344,5.548-5.634,4.806a2.495,2.495,0,0,1-1.72-3.226,5.193,5.193,0,0,1-5.226.978,6.032,6.032,0,0,1,3.71-11.462,5.226,5.226,0,0,1,3.645,3.763l.72-2.247,1.452.473-2.731,8.408c-.409,1.247.075,1.892.828,2.15,1.376.441,2.817-.978,3.8-3.978,1.688-5.215-.935-9.892-6.312-11.645s-10.333.677-12.043,5.946.763,10.14,6.161,11.828a10.193,10.193,0,0,0,4.581.409v1.215a11.451,11.451,0,0,1-4.968-.484c-6.107-1.978-8.924-7.527-7.011-13.419s7.527-8.666,13.623-6.677S497.305,176.106,495.424,181.966Zm-6.3-1.774a4.452,4.452,0,1,0-5.667,3.1,4.3,4.3,0,0,0,5.667-3.14Z" transform="translate(-294.61 -102.204)" fill="#805c41"/>
      <path id="Path_3469" data-name="Path 3469" d="M372.571,193.141c.237,3.075-.763,4.978-2.634,5.118a1.935,1.935,0,0,1-2.2-1.817,4.011,4.011,0,0,1-3.473,2.258,4.7,4.7,0,0,1-.72-9.355,4.075,4.075,0,0,1,3.742,1.634l-.151-1.839,1.183-.086.527,6.871c.086,1.011.613,1.333,1.236,1.29,1.075-.086,1.742-1.538,1.548-3.989-.333-4.3-3.613-6.849-8-6.516s-7.236,3.559-6.9,7.849a7.021,7.021,0,0,0,7.957,6.731,8.074,8.074,0,0,0,3.419-1.075l.376.871a8.71,8.71,0,0,1-3.72,1.075,7.978,7.978,0,0,1-9.032-7.581c-.366-4.817,2.828-8.462,7.838-8.849S372.152,188.388,372.571,193.141Zm-5.064.591a3.462,3.462,0,1,0-3.161,3.9,3.387,3.387,0,0,0,3.161-3.9Z" transform="translate(-303.517 -100.885)" fill="#040506"/>
      <path id="Path_3470" data-name="Path 3470" d="M484.408,323.557c-1.366,3.344-3.419,4.8-5.441,3.957a2.247,2.247,0,0,1-1.333-3.043,4.752,4.752,0,0,1-4.806.516A5.484,5.484,0,0,1,477,314.858a4.742,4.742,0,0,1,3.032,3.72l.817-1.989,1.28.527-3.064,7.441c-.452,1.075-.065,1.72.6,1.989,1.215.505,2.624-.677,3.72-3.333,1.892-4.613-.161-9.043-4.914-11s-9.408-.108-11.333,4.548,0,9.236,4.763,11.2a9.376,9.376,0,0,0,4.118.688l-.065,1.075a10.129,10.129,0,0,1-4.473-.785c-5.376-2.215-7.527-7.451-5.376-12.656s7.408-7.322,12.828-5.1S486.483,318.417,484.408,323.557Zm-5.58-2.043a4.054,4.054,0,1,0-5.376,2.409,3.957,3.957,0,0,0,5.376-2.409Z" transform="translate(-295.272 -91.509)" fill="#805c41"/>
      <path id="Path_3471" data-name="Path 3471" d="M571.21,271.671c-1.376,3.333-3.419,4.785-5.441,3.957a2.269,2.269,0,0,1-1.344-3.054,4.72,4.72,0,0,1-4.806.527,5.484,5.484,0,0,1,4.172-10.129,4.742,4.742,0,0,1,3.043,3.656l.817-1.978,1.269.527-3.064,7.441c-.452,1.075-.064,1.71.6,1.989,1.226.505,2.634-.688,3.72-3.333,1.9-4.624-.161-9.043-4.9-11s-9.419-.118-11.333,4.538a8.215,8.215,0,0,0,4.753,11.215,9.4,9.4,0,0,0,4.129.688l-.065,1.075a10.44,10.44,0,0,1-4.473-.785c-5.376-2.226-7.527-7.451-5.43-12.656s7.408-7.333,12.828-5.1S573.328,266.574,571.21,271.671Zm-5.591-2.054a4.043,4.043,0,1,0-5.376,2.419,3.957,3.957,0,0,0,5.376-2.419Z" transform="translate(-288.742 -95.417)" fill="#040506"/>
      <path id="Path_3472" data-name="Path 3472" d="M462.741,132.483c-1.527,3.7-3.8,5.312-6.043,4.387a2.505,2.505,0,0,1-1.473-3.387,5.215,5.215,0,0,1-5.376.581,6.075,6.075,0,0,1,4.624-11.226,5.236,5.236,0,0,1,3.365,4.054l.9-2.15,1.419.581-3.4,8.247c-.505,1.226-.075,1.914.667,2.215,1.355.559,2.914-.763,4.129-3.7,2.1-5.118-.183-10.032-5.451-12.2s-10.441-.118-12.559,5.043,0,10.258,5.269,12.43a10.43,10.43,0,0,0,4.57.763l-.064,1.215a11.43,11.43,0,0,1-4.968-.871c-5.978-2.462-8.387-8.258-6.011-13.978s8.215-8.129,14.225-5.656S465.085,126.784,462.741,132.483Zm-6.2-2.269a4.494,4.494,0,1,0-3.568,3.018A4.484,4.484,0,0,0,456.536,130.214Z" transform="translate(-297.066 -105.989)" fill="#040506"/>
      <path id="Path_3473" data-name="Path 3473" d="M405.239,238.9c1.2,3.129.753,5.376-1.14,6.15a2.151,2.151,0,0,1-2.86-1.2,4.376,4.376,0,0,1-2.9,3.43,5.1,5.1,0,0,1-3.667-9.505,4.409,4.409,0,0,1,4.387.527l-.71-1.86,1.194-.462,2.688,6.978c.4,1.075,1.075,1.2,1.688.968,1.14-.441,1.323-2.15.366-4.634-1.667-4.3-5.892-6-10.344-4.3s-6.451,5.946-4.731,10.312a7.634,7.634,0,0,0,10.376,4.527,8.731,8.731,0,0,0,3.226-2.151l.667.785a9.592,9.592,0,0,1-3.527,2.333c-5.064,1.957-9.871-.194-11.752-5.075s.312-9.677,5.376-11.634S403.347,234.051,405.239,238.9Zm-5.086,2.15a3.763,3.763,0,1,0-2.064,5.054,3.677,3.677,0,0,0,2.043-5.011Z" transform="translate(-301.122 -97.301)" fill="#805c41"/>
      <path id="Path_3497" data-name="Path 3497" d="M0,0H37.322V25.15H0Z" transform="matrix(0.921, -0.39, 0.39, 0.921, 86.234, 195.375)" fill="#f5eee6"/>
      <path id="Path_3474" data-name="Path 3474" d="M431.551,298.126s-.075-.151-.194-.419-.312-.7-.538-1.226l-2.011-4.656c-1.72-4.021-4.193-9.785-7.193-16.806l.183.075-34.343,14.58c0,.054.183-.452.1-.226h0v.172l.086.194.161.387.323.774c.226.505.441,1.021.656,1.527l1.28,3.032,2.505,5.925,4.774,11.183-.215-.086,24.731-10.4,7.1-2.957,1.9-.774.495-.2.172-.064-.151.075-.473.2-1.849.806-7.032,3.032-24.8,10.58-.151.064-.065-.151c-1.495-3.527-3.086-7.247-4.72-11.129q-1.237-2.9-2.516-5.925l-1.28-3.032-.656-1.527-.323-.774-.161-.387-.086-.194v-.1h0c-.1.2.108-.3.1-.247l34.408-14.516.129-.054.065.14,7.086,16.946c.828,2,1.484,3.559,1.935,4.645.2.527.376.925.495,1.215S431.551,298.126,431.551,298.126Z" transform="translate(-301.144 -94.174)" fill="#263238"/>
      <path id="Path_3475" data-name="Path 3475" d="M421.735,275a2.556,2.556,0,0,1-.161.441c-.129.312-.312.72-.527,1.237l-2,4.537c-1.742,3.849-4.118,9.14-6.774,15.053l-.064.14h-.151l-1.129-.3-16.677-4.527-5.043-1.527-1.366-.4-.473-.161.495.086,1.376.344,5.075,1.29,16.7,4.419,1.14.3-.215.108,6.882-14.989c.871-1.871,1.591-3.4,2.15-4.484l.581-1.215A2.472,2.472,0,0,1,421.735,275Z" transform="translate(-301.134 -94.166)" fill="#455a64"/>
      <path id="Path_3476" data-name="Path 3476" d="M396.6,311.536a88.275,88.275,0,0,1,2.645-9.677,89.728,89.728,0,0,1,3.226-9.559,93.874,93.874,0,0,1-2.656,9.677A94.406,94.406,0,0,1,396.6,311.536Z" transform="translate(-300.44 -92.864)" fill="#455a64"/>
      <path id="Path_3477" data-name="Path 3477" d="M429.594,297.09a13,13,0,0,1-2.484-1.075c-1.495-.71-3.548-1.731-5.8-2.892s-4.3-2.237-5.742-3.043a13.128,13.128,0,0,1-2.323-1.419,13.579,13.579,0,0,1,2.462,1.075c1.495.71,3.559,1.731,5.817,2.892s4.3,2.247,5.763,3.054A13.528,13.528,0,0,1,429.594,297.09Z" transform="translate(-299.187 -93.138)" fill="#455a64"/>
      <rect id="Rectangle_42" data-name="Rectangle 42" width="41.386" height="61.396" transform="translate(239.868 107.624) rotate(-89.23)" fill="#805c41"/>
      <path id="Path_3478" data-name="Path 3478" d="M592.188,169.268a3.83,3.83,0,0,1-.538.559l-1.613,1.516-6.011,5.505-20.161,18.161-.183.161-.2-.151-1.505-1.215-22.128-17.838-6.677-5.462-1.8-1.505a3.545,3.545,0,0,1-.6-.559,5.729,5.729,0,0,1,.677.462l1.86,1.419,6.785,5.312,22.236,17.709,1.505,1.2h-.387L583.7,176.569l6.14-5.376,1.688-1.43a3.828,3.828,0,0,1,.656-.495Z" transform="translate(-290.344 -102.184)" fill="#263238"/>
      <path id="Path_3479" data-name="Path 3479" d="M530.27,208.646c-.107-.108,4.72-5.677,10.806-12.451s11.1-12.172,11.215-12.075-4.72,5.677-10.752,12.451S530.388,208.722,530.27,208.646Z" transform="translate(-290.382 -101.004)" fill="#263238"/>
      <path id="Path_3480" data-name="Path 3480" d="M588.648,209.353a4.829,4.829,0,0,1-.806-.86c-.484-.581-1.183-1.43-2.021-2.484-1.688-2.15-4-5.021-6.516-8.279s-4.763-6.226-6.387-8.4c-.742-1.075-1.366-1.882-1.892-2.591a6.045,6.045,0,0,1-.645-1.011,7.889,7.889,0,0,1,.8.849l2.021,2.462c1.688,2.15,4,5.043,6.527,8.312s4.785,6.236,6.4,8.408c.807,1.075,1.452,1.978,1.893,2.591A4.944,4.944,0,0,1,588.648,209.353Z" transform="translate(-287.364 -100.883)" fill="#263238"/>
      <rect id="Rectangle_43" data-name="Rectangle 43" width="42.074" height="62.418" transform="translate(153.556 166.203) rotate(-85.59)" fill="#f5eee6"/>
      <path id="Path_3481" data-name="Path 3481" d="M515.227,227.178a3.418,3.418,0,0,1-.57.538l-1.742,1.43-6.451,5.2-21.623,17.118-.2.161-.183-.172L483,250.134l-21.3-19.559L455.25,224.6l-1.72-1.645a3.921,3.921,0,0,1-.57-.6,5.1,5.1,0,0,1,.656.516l1.8,1.559,6.537,5.828,21.419,19.354,1.452,1.323h-.4l21.741-16.967,6.57-5.054,1.806-1.344A4.726,4.726,0,0,1,515.227,227.178Z" transform="translate(-296.199 -98.127)" fill="#263238"/>
      <path id="Path_3482" data-name="Path 3482" d="M450,263.386c-.118-.108,5.054-5.6,11.537-12.269s11.828-11.978,11.946-11.828-5.054,5.591-11.548,12.269S450.14,263.494,450,263.386Z" transform="translate(-296.422 -96.853)" fill="#263238"/>
      <path id="Path_3483" data-name="Path 3483" d="M509.107,267.6a5.29,5.29,0,0,1-.785-.914l-1.978-2.634c-1.656-2.237-3.9-5.376-6.355-8.8s-4.667-6.6-6.236-8.892c-.72-1.075-1.344-2-1.849-2.753a5.373,5.373,0,0,1-.613-1.075,5.152,5.152,0,0,1,.774.9l1.978,2.634c1.656,2.226,3.9,5.376,6.376,8.806s4.667,6.623,6.236,8.914l1.849,2.742a5.04,5.04,0,0,1,.6,1.065Z" transform="translate(-293.315 -96.608)" fill="#263238"/>
      <path id="Path_3484" data-name="Path 3484" d="M450.768,195.534a2.613,2.613,0,0,0-.1-.581l-.269-1.667c-.215-1.473-.538-3.613-.957-6.333-.806-5.473-1.957-13.311-3.376-22.86l.215.161L399.608,171c-.054.054.366-.495.194-.258h0v.495l.075.527.14,1.075c.108.7.2,1.4.3,2.086.2,1.387.4,2.763.591,4.129.387,2.72.774,5.376,1.151,8.043.753,5.269,1.473,10.333,2.15,15.129l-.237-.183,33.7-4.7,9.677-1.323,2.57-.344.667-.086h.032l-.645.108-2.516.387-9.57,1.43-33.72,4.946h-.2v-.215c-.688-4.8-1.419-9.849-2.15-15.118-.387-2.634-.763-5.376-1.161-8.043-.194-1.366-.4-2.742-.591-4.129-.1-.688-.2-1.387-.3-2.075l-.151-1.075-.075-.527v-.505h0c-.172.237.237-.323.2-.258l46.536-6.624h.183v.183c1.344,9.6,2.441,17.494,3.226,23,.366,2.71.656,4.839.86,6.312.086.7.161,1.247.215,1.634A1.341,1.341,0,0,1,450.768,195.534Z" transform="translate(-300.222 -102.526)" fill="#040506"/>
      <path id="Path_3485" data-name="Path 3485" d="M446.269,164.06a2.66,2.66,0,0,1-.333.484l-1.075,1.344-3.914,4.892-13.118,16.182-.129.151-.172-.1-1.28-.731-18.924-10.9-5.71-3.344-1.538-.925a5.159,5.159,0,0,1-.527-.355,3.041,3.041,0,0,1,.57.269l1.581.86,5.785,3.226,18.989,10.752,1.29.731-.3.054,13.247-16.129,4.011-4.817,1.075-1.28a3.23,3.23,0,0,1,.473-.366Z" transform="translate(-300.218 -102.513)" fill="#040506"/>
      <path id="Path_3486" data-name="Path 3486" d="M403.84,201.3c-.129-.086,2.753-5,6.451-10.989s6.785-10.752,6.914-10.688-2.753,5-6.451,10.989S404.012,201.372,403.84,201.3Z" transform="translate(-299.895 -101.342)" fill="#040506"/>
      <path id="Path_3487" data-name="Path 3487" d="M448.388,194.406a19.826,19.826,0,0,1-2.656-2.15c-1.591-1.366-3.763-3.29-6.15-5.376s-4.516-4.107-6.043-5.548a22.586,22.586,0,0,1-2.419-2.441,19.134,19.134,0,0,1,2.645,2.15c1.591,1.366,3.774,3.226,6.161,5.376s4.538,4.118,6.064,5.57A19.782,19.782,0,0,1,448.388,194.406Z" transform="translate(-297.842 -101.397)" fill="#040506"/>
      <rect id="Rectangle_44" data-name="Rectangle 44" width="41.246" height="27.806" transform="translate(48.156 31.963) rotate(-26.21)" fill="#805c41"/>
      <path id="Path_3488" data-name="Path 3488" d="M388.449,119.47a2.269,2.269,0,0,1-.151.495l-.495,1.4c-.473,1.258-1.129,2.989-1.925,5.129l-6.537,17.021-.054.151h-.172l-1.269-.29-18.688-3.978-5.656-1.237-1.527-.366a1.958,1.958,0,0,1-.527-.151,2.914,2.914,0,0,1,.538.075l1.548.28,5.688,1.075,18.709,3.817,1.269.269-.237.118c2.613-6.645,4.946-12.613,6.656-16.967l2.032-5.086c.237-.57.43-1.075.57-1.376a2.567,2.567,0,0,1,.226-.376Z" transform="translate(-303.837 -105.868)" fill="#263238"/>
      <line id="Line_5" data-name="Line 5" x1="3.688" y2="21.462" transform="translate(59.892 35.3)" fill="#263238"/>
      <path id="Path_3489" data-name="Path 3489" d="M362.87,161.11a107.805,107.805,0,0,1,1.559-10.752,103.358,103.358,0,0,1,2.151-10.688c.151,0-.559,4.849-1.57,10.752a108.2,108.2,0,0,1-2.14,10.688Z" transform="translate(-302.978 -104.348)" fill="#263238"/>
      <line id="Line_6" data-name="Line 6" x1="18" y1="10.645" transform="translate(78.892 27.903)" fill="#263238"/>
      <path id="Path_3490" data-name="Path 3490" d="M380.54,132.77a96.4,96.4,0,0,1,9.14,5.075,94.746,94.746,0,0,1,8.86,5.57,101.253,101.253,0,0,1-9.139-5.086,99.907,99.907,0,0,1-8.86-5.559Z" transform="translate(-301.648 -104.867)" fill="#263238"/>
      <path id="Path_3498" data-name="Path 3498" d="M0,0H41.246V27.806H0Z" transform="translate(215.706)" fill="#f5eee6"/>
      <path id="Path_3491" data-name="Path 3491" d="M549.032,106.82a3.815,3.815,0,0,1-.355.376l-1.075,1.075-4,3.753L530.237,124.4l-.129.118-.129-.108-1.075-.8L513.85,111.788l-4.527-3.6-1.215-1a2.29,2.29,0,0,1-.409-.366,3.147,3.147,0,0,1,.452.3l1.269.935,4.6,3.516,15.053,11.688,1.075.8h-.269l13.462-12.29,4.075-3.667,1.075-.978A2.29,2.29,0,0,1,549.032,106.82Z" transform="translate(-292.08 -106.82)" fill="#263238"/>
      <line id="Line_7" data-name="Line 7" x1="12.785" y2="17.634" transform="translate(215.706 10.172)" fill="#263238"/>
      <path id="Path_3492" data-name="Path 3492" d="M507.78,133.91a102.8,102.8,0,0,1,6.161-8.978,107.511,107.511,0,0,1,6.623-8.6,102.781,102.781,0,0,1-6.161,8.978A107.513,107.513,0,0,1,507.78,133.91Z" transform="translate(-292.074 -106.104)" fill="#263238"/>
      <line id="Line_8" data-name="Line 8" x1="11.451" y1="17.494" transform="translate(245.501 10.301)" fill="#263238"/>
      <path id="Path_3493" data-name="Path 3493" d="M535.49,116.4a98.088,98.088,0,0,1,5.957,8.6,96.6,96.6,0,0,1,5.494,8.9,98.116,98.116,0,0,1-5.957-8.6,101.349,101.349,0,0,1-5.495-8.9Z" transform="translate(-289.989 -106.099)" fill="#263238"/>
      <rect id="Rectangle_46" data-name="Rectangle 46" width="35.924" height="53.3" transform="translate(0.013 148.241) rotate(-75.59)" fill="#805c41"/>
      <path id="Path_3494" data-name="Path 3494" d="M367.1,225.588a3.225,3.225,0,0,1-.559.355l-1.677.957-6.193,3.409L337.95,241.5l-.194.108-.14-.183L336.6,240.1l-15.053-19.58-4.43-5.968-1.2-1.634a5.143,5.143,0,0,1-.4-.6,3.053,3.053,0,0,1,.484.538l1.279,1.581,4.634,5.86,15.129,19.494,1.075,1.323-.333-.075L358.573,230l6.279-3.226,1.71-.86a2.73,2.73,0,0,1,.538-.323Z" transform="translate(-306.541 -98.882)" fill="#263238"/>
      <line id="Line_9" data-name="Line 9" x1="21.666" y2="17.946" transform="translate(0.001 130.287)" fill="#263238"/>
      <path id="Path_3495" data-name="Path 3495" d="M307.17,245.936c-.1-.118,4.677-4.226,10.656-9.183s10.914-8.882,11.01-8.763-4.667,4.236-10.656,9.193S307.267,246.054,307.17,245.936Z" transform="translate(-307.169 -97.703)" fill="#263238"/>
      <line id="Line_10" data-name="Line 10" x1="8.709" y1="25.591" transform="translate(42.914 135.911)" fill="#263238"/>
      <path id="Path_3496" data-name="Path 3496" d="M347.08,233.22c.151,0,2.215,5.645,4.624,12.709s4.226,12.828,4.086,12.9-2.215-5.645-4.624-12.709S346.994,233.274,347.08,233.22Z" transform="translate(-304.166 -97.309)" fill="#263238"/>
    </g>
  </g>
</svg>
