<svg xmlns="http://www.w3.org/2000/svg" width="168" height="117.686" viewBox="0 0 168 117.686">
  <g id="Group_54568" data-name="Group 54568" transform="translate(-250.04 -167.636)">
    <g id="Group_3340" data-name="Group 3340" transform="translate(250.04 167.636)">
      <g id="Group_3288" data-name="Group 3288" transform="translate(31.68 56.301)">
        <path id="Path_3288" data-name="Path 3288" d="M323.917,298.035a.986.986,0,0,1-.456-.248l0,0,0,0a13.169,13.169,0,0,1-3.064-4.736l1.3-.375a12.225,12.225,0,0,0,2.727,4.175l-.446.484.5-.439.11.774Z" transform="translate(-320.397 -292.675)" fill="#fff"/>
      </g>
      <g id="Group_3289" data-name="Group 3289" transform="translate(35.912 53.493)">
        <path id="Path_3289" data-name="Path 3289" d="M338.962,291.464a10.014,10.014,0,0,1-1.754-.167c-3.073-.555-6.259-2.33-7.411-4.128l1.137-.729c.94,1.467,3.862,3.049,6.514,3.528a4.812,4.812,0,0,0,3.608-.4l.811,1.081A4.81,4.81,0,0,1,338.962,291.464Z" transform="translate(-329.797 -286.439)" fill="#fff"/>
      </g>
      <g id="Group_3290" data-name="Group 3290" transform="translate(30.114 38.569)">
        <path id="Path_3290" data-name="Path 3290" d="M317.731,266.791a72.163,72.163,0,0,1-.754-13.5l1.349.059a70.767,70.767,0,0,0,.736,13.21Z" transform="translate(-316.92 -253.295)" fill="#fff"/>
      </g>
      <g id="Group_3291" data-name="Group 3291" transform="translate(33.447 39.419)">
        <path id="Path_3291" data-name="Path 3291" d="M325.456,265.974a50.1,50.1,0,0,1-1.133-10.793l1.351.007a49.693,49.693,0,0,0,1.1,10.472Z" transform="translate(-324.322 -255.181)" fill="#fff"/>
      </g>
      <g id="Group_3292" data-name="Group 3292" transform="translate(5.488 0)">
        <path id="Path_3292" data-name="Path 3292" d="M262.666,184.678l-.437.16,0-.468c.023-1.972.013-4.631.057-6.575l.2-.084,6.084-2.569c3.4-1.454,8.752-3.63,12.2-5.053,2.044-.818,4.082-1.652,6.134-2.452-2,.93-4.008,1.825-6.012,2.738-3.433,1.526-8.677,3.865-12.088,5.326l-6.061,2.621.2-.3c-.008,1.059-.007,2.119-.026,3.178l-.045,3.178-.435-.308c7.552-2.7,14.228-4.96,21.827-7.46" transform="translate(-262.229 -167.637)" fill="#fff"/>
      </g>
      <g id="Group_3293" data-name="Group 3293" transform="translate(5.474 12.362)">
        <path id="Path_3293" data-name="Path 3293" d="M285.418,198.8c-5.395,1.3-11.466,2.508-16.924,3.677l-5.886,1.231-.408.086c0-.261,0-1.707,0-2v-.253l.242-.073c7.615-2.287,14.73-4.323,22.42-6.378-3.3,1.128-7.256,2.374-10.636,3.451-3.854,1.22-7.719,2.4-11.587,3.579l.242-.326v1.583l-.408-.332,5.895-1.188c5.485-1.079,11.57-2.122,17.052-3.055" transform="translate(-262.198 -195.091)" fill="#fff"/>
      </g>
      <g id="Group_3294" data-name="Group 3294" transform="translate(5.477 18.256)">
        <path id="Path_3294" data-name="Path 3294" d="M285.665,208.181c-5.711,1.25-11.306,2.311-17.086,3.4l-5.977,1.092.278-.333q0,4.029-.048,8.058c-.034,2.686-.073,5.372-.144,8.058l-.292.351,0-.351c-.136-5.371-.183-10.743-.191-16.116v-.283l.279-.05c7.753-1.4,15.413-2.705,23.183-3.824" transform="translate(-262.203 -208.181)" fill="#fff"/>
      </g>
      <g id="Group_3295" data-name="Group 3295" transform="translate(30.17)">
        <path id="Path_3295" data-name="Path 3295" d="M319.934,176.685c5.514,1.811,10.258,3.514,15.733,5.439l5.466,1.946-.43.305c-.024-2.119-.074-4.237-.076-6.356l.2.3c-5.565-2.429-12.341-5.432-17.867-7.947-1.972-.913-3.952-1.808-5.916-2.74,2.022.8,4.028,1.633,6.042,2.45,5.613,2.319,12.432,5.217,18.007,7.623l.2.085c.044,2.192.036,4.384.053,6.576l0,.464-.434-.159c-7.185-2.619-13.886-5.192-20.981-7.989" transform="translate(-317.045 -167.636)" fill="#fff"/>
      </g>
      <g id="Group_3296" data-name="Group 3296" transform="translate(33.484 12.185)">
        <path id="Path_3296" data-name="Path 3296" d="M324.4,194.7l.433,4.168,20.355,4.391-.463-1.678Z" transform="translate(-324.404 -194.698)" fill="#fff"/>
      </g>
      <g id="Group_3297" data-name="Group 3297" transform="translate(5.717 12.362)">
        <path id="Path_3297" data-name="Path 3297" d="M285.157,195.091l.557,3.712-22.9,4.67-.08-2Z" transform="translate(-262.737 -195.091)" fill="#fff"/>
      </g>
      <g id="Group_3298" data-name="Group 3298" transform="translate(33.484 12.185)">
        <path id="Path_3298" data-name="Path 3298" d="M324.837,198.866c4.881.837,10.164,1.9,15.047,2.878l5.255,1.086-.409.332v-1.583l.233.323c-4.677-1.564-11.052-3.764-15.695-5.424-1.733-.636-3.136-1.124-4.862-1.779,1.774.513,3.2.938,4.966,1.47,4.711,1.461,11.128,3.53,15.807,5.088l.233.077c0,.115,0,1.666,0,1.829v.42l-.409-.088c-6.687-1.43-13.544-2.977-20.162-4.628" transform="translate(-324.404 -194.698)" fill="#fff"/>
      </g>
      <g id="Group_3299" data-name="Group 3299" transform="translate(34.161 18.822)">
        <path id="Path_3299" data-name="Path 3299" d="M346.228,212.758c-.016,2-.036,4-.073,6.006l-.522-.188c-.032-1.755-.052-3.514-.063-5.269-6.789-1.2-12.941-2.332-19.662-3.867,6.925.929,13.176,1.992,20.049,3.267Z" transform="translate(-325.907 -209.439)" fill="#fff"/>
      </g>
      <g id="Group_3300" data-name="Group 3300" transform="translate(26.44 0.385)">
        <path id="Path_3300" data-name="Path 3300" d="M315.483,203.314c0-.226-.076-21.7-3.249-31.777-.643,1.024-1.51,2.41-1.9,3.037.819,1.661,3.741,8.949,3.524,28.106l-1.351-.015c.241-21.275-3.492-27.7-3.53-27.765l-.215-.356.219-.355s2.557-4.083,2.859-4.562l.717-1.137.484,1.254c3.711,9.609,3.793,32.594,3.794,33.568Z" transform="translate(-308.76 -168.49)" fill="#fff"/>
      </g>
      <g id="Group_3301" data-name="Group 3301" transform="translate(22.882 34.198)">
        <path id="Path_3301" data-name="Path 3301" d="M307.827,244.937a4.263,4.263,0,0,1,1.116.155,40.493,40.493,0,0,0,10.134,1.722c.643.023,1.314.036,1.995.036,1.065,0,2.139-.03,3.116-.081-.36.36-.695.683-.944.924-.131.126-.24.231-.33.32a45.9,45.9,0,0,1-5.467.366,21.656,21.656,0,0,1-7.982-1.346,12.628,12.628,0,0,0-3.026-.767h-.023c-.15-.011-.3-.016-.455-.016a7.35,7.35,0,0,0-1.649.2,5.07,5.07,0,0,1,3.208-1.493c.1-.009.2-.013.308-.013m0-1.351c-.141,0-.281.006-.422.018a6.6,6.6,0,0,0-5.207,3.376c-.455.737-.95,1.777-1.338,2.55,0,.006,0,.009,0,.009.1,0,2.512-1.94,5.1-1.94.119,0,.239,0,.358.013,2.585.23,4.532,2.118,11.129,2.118a47.832,47.832,0,0,0,6.109-.436c.155-.241,2.939-2.683,3.875-4.231a35.165,35.165,0,0,1-6.359.437c-.639,0-1.294-.011-1.946-.035a39.449,39.449,0,0,1-9.829-1.676,5.611,5.611,0,0,0-1.471-.2" transform="translate(-300.858 -243.586)" fill="#fff"/>
      </g>
      <g id="Group_3302" data-name="Group 3302" transform="translate(0.769 37.302)">
        <path id="Path_3302" data-name="Path 3302" d="M303.218,251.151c-.021.225-1.566,4.007-1.975,4.994-.072.174-.2.384-.435.313-.614-.185-1.069.2-1.581.384a32.422,32.422,0,0,0-5.03,4.119c-1.9,1.934-3.817,3.858-5.885,5.629-.245.21-.5.46-.5.46a36.637,36.637,0,0,1-4.2,2.784s-8.423,3.27-11.161-1.515a6.432,6.432,0,0,1-.937-2.722c-.067-.655-.128-1.3-.164-1.96-.072-1.162-.757-1.525-1.806-.911a14.674,14.674,0,0,0-2.712,2.221,27.994,27.994,0,0,0-4.621,6.576,12.257,12.257,0,0,1-3.05,3.935c-2.313,1.766-4.642,1.3-6.1-1.218a8.919,8.919,0,0,1-.931-2.528,19.709,19.709,0,0,1-.353-4.9,17.941,17.941,0,0,1,5.675-10.864l.251.517c-1.09,1.428-3.5,4.565-3.792,8.275a9.232,9.232,0,0,0,.645,4.186,4.071,4.071,0,0,0,1.786,1.653,3.983,3.983,0,0,0,2.943-.517,13.622,13.622,0,0,0,4.084-4.687,26.7,26.7,0,0,1,7.537-8.055c1.6-1.131,2.349-.389,2.666.537a19.41,19.41,0,0,1,.133,3.035A5.1,5.1,0,0,0,275,264c1.4,1.591,3.291,1.816,5.281,1.54.67-.092,2.293-.538,2.293-.538a14.9,14.9,0,0,0,3.464-1.893c2.789-1.105,12.957-11.3,16.156-12.476.235-.087.814-.271,1.044-.046.077.082.082.251-.015.563" transform="translate(-251.748 -250.481)" fill="#fff"/>
      </g>
      <g id="Group_3303" data-name="Group 3303" transform="translate(65.016 53.422)">
        <path id="Path_3303" data-name="Path 3303" d="M394.434,286.281l.04.028a.124.124,0,0,0-.04-.028" transform="translate(-394.434 -286.281)" fill="#fff"/>
      </g>
      <g id="Group_3304" data-name="Group 3304" transform="translate(4.248 38.003)">
        <path id="Path_3304" data-name="Path 3304" d="M262.851,259.118l-3.147-2.432a.588.588,0,0,1-.105-.825l2.778-3.595a.588.588,0,0,1,.825-.105l3.147,2.432a.589.589,0,0,1,.106.825l-2.778,3.594a.588.588,0,0,1-.825.106" transform="translate(-259.475 -252.038)" fill="#fff"/>
      </g>
      <g id="Group_3305" data-name="Group 3305" transform="translate(10.839 37.037)">
        <path id="Path_3305" data-name="Path 3305" d="M277.489,256.973l-3.147-2.432a.588.588,0,0,1-.106-.825l2.778-3.594a.588.588,0,0,1,.825-.105l3.147,2.432a.588.588,0,0,1,.106.825l-2.778,3.594a.588.588,0,0,1-.825.106" transform="translate(-274.113 -249.893)" fill="#fff"/>
      </g>
      <g id="Group_3306" data-name="Group 3306" transform="translate(47.976 63.55)">
        <path id="Path_3306" data-name="Path 3306" d="M360.251,310.439l1.84,1.622-2,2.263-1.84-1.622Zm-.067-1.665a.587.587,0,0,0-.441.2l-3.005,3.407a.588.588,0,0,0,.052.83l2.983,2.631a.588.588,0,0,0,.83-.052l3.005-3.407a.588.588,0,0,0-.052-.83l-2.983-2.631a.587.587,0,0,0-.389-.147" transform="translate(-356.591 -308.774)" fill="#fff"/>
      </g>
      <g id="Group_3307" data-name="Group 3307" transform="translate(54.616 63.013)">
        <path id="Path_3307" data-name="Path 3307" d="M375,309.246l1.84,1.622-2,2.263L373,311.509Zm-.067-1.665a.587.587,0,0,0-.441.2l-3.005,3.407a.588.588,0,0,0,.052.83l2.983,2.631a.588.588,0,0,0,.83-.052l3.005-3.407a.588.588,0,0,0-.052-.83l-2.983-2.631a.587.587,0,0,0-.389-.147" transform="translate(-371.338 -307.581)" fill="#fff"/>
      </g>
      <g id="Group_3308" data-name="Group 3308" transform="translate(49.091 28.824)">
        <path id="Path_3308" data-name="Path 3308" d="M366.219,235.229a3.577,3.577,0,1,1-3.577-3.577,3.577,3.577,0,0,1,3.577,3.577" transform="translate(-359.066 -231.652)" fill="#fff"/>
      </g>
      <g id="Group_3309" data-name="Group 3309" transform="translate(34.726 51.952)">
        <path id="Path_3309" data-name="Path 3309" d="M459.5,283.016a49.379,49.379,0,0,0-6.385,8.263c-.648.982-1.162,2.007-1.844,2.976a6.054,6.054,0,0,1-4.5,2.653,2.9,2.9,0,0,1-1.69-.73,7.916,7.916,0,0,1-2.178-2.827,7.352,7.352,0,0,1-.691-3.519l.512.175c-1.784,2.5-4.946,7.156-8.007,7.932-4.013.489-5.946-3.625-6.48-6.947a20.793,20.793,0,0,1-.337-3.381l.627.44c-4.32,1.582-8.694,2.939-13.111,4.18-18.728,5.1-52.628,12.143-66.729-5.056l-.134-.168-.034-.042-.014-.013a.258.258,0,0,0-.025-.024c-.043-.048-.039,0,.126.018a.348.348,0,0,0,.179-.034c-2.855,4.014-6.626,8.24-11.693,9.53-3.676.992-7.518-.752-9.927-3.529l1.077-1c5.462,6.022,11.895,2.695,16.5-2.423a29.887,29.887,0,0,0,2.105-2.593,9.007,9.007,0,0,1,.878-1.148,1.33,1.33,0,0,1,2.038.254c13.323,16.753,47.24,9.907,65.366,5.186,4.617-1.242,9.206-2.629,13.7-4.234v.662c.047,3.7,1.041,9.91,5.775,9.592,1.655-.408,3.037-1.942,4.216-3.171a43.566,43.566,0,0,0,3.438-4.346l.589-.844-.077,1.019a7.365,7.365,0,0,0,2.583,5.97,2.618,2.618,0,0,0,3.046.337c2.215-.883,3.305-3.119,4.537-5.014a49.519,49.519,0,0,1,6.564-8.148" transform="translate(-327.163 -283.016)" fill="#fff"/>
      </g>
      <g id="Group_3310" data-name="Group 3310" transform="translate(0 45.448)">
        <path id="Path_3310" data-name="Path 3310" d="M300.232,268.572c-1.618.379-2.818,1.642-4.023,2.708-1.192,1.126-2.337,2.307-3.52,3.459a36.919,36.919,0,0,1-7.854,6.123c-5.048,2.881-13.147,3.619-16.115-2.48a10.4,10.4,0,0,1-.846-2.5l.65.54c-1.112.115-2.059,1.738-2.72,2.685-2.124,3.206-3.839,7.121-7.384,9.09-3.061,1.685-5.817-.225-7.212-3.018-2.575-5.394-.552-11.748,2.771-16.316a20.181,20.181,0,0,0-3.177,10.608c.058,3.3,1.468,7.746,5.179,8.229a5.942,5.942,0,0,0,3.577-1.851c2.121-2.134,3.491-4.908,5.129-7.462,1.01-1.51,2.244-3.573,4.4-3.3,1.184,7.894,9.513,7.85,15.27,4.865a39.193,39.193,0,0,0,7.9-5.681c1.241-1.073,2.456-2.187,3.722-3.248,1.269-1.01,2.593-2.206,4.252-2.45" transform="translate(-250.04 -268.572)" fill="#fff"/>
      </g>
      <g id="Group_3311" data-name="Group 3311" transform="translate(4.95 92.677)">
        <path id="Path_3311" data-name="Path 3311" d="M262.453,377.407c1.28.78,1.418.78,1.5.78.328,0,.6-.3.819-.928a3.871,3.871,0,0,0,.242-1.218c0-.392-.307-.757-.936-1.114a9.53,9.53,0,0,1-1.807-1.292l-.172-.172-.1.221a9.607,9.607,0,0,0-.965,2.455c0,.21.169.525,1.419,1.268" transform="translate(-261.034 -373.463)" fill="#fff"/>
      </g>
      <g id="Group_3312" data-name="Group 3312" transform="translate(8.962 92.45)">
        <path id="Path_3312" data-name="Path 3312" d="M271.1,376.3q.758.428,1.536.836l.116.061.088-.1a4.188,4.188,0,0,0,.712-1.358,4.124,4.124,0,0,0,.26-1.1c0-.279-.32-.674-2.641-1.667l-.066-.014c-.182,0-.362.181-.738,1.1a4.524,4.524,0,0,0-.42,1.178c0,.2.137.486,1.152,1.058" transform="translate(-269.944 -372.959)" fill="#fff"/>
      </g>
      <g id="Group_3313" data-name="Group 3313" transform="translate(2.442 98.168)">
        <path id="Path_3313" data-name="Path 3313" d="M294.922,388.654l-.082-.008a57.343,57.343,0,0,1-8.211-1.739,28.721,28.721,0,0,0-6-1.246,4.513,4.513,0,0,0-3.327,1.648,5.49,5.49,0,0,0-1.33,3.6,11.472,11.472,0,0,0,1.086,3.342c-.824.075-1.548.113-2.157.113a5.174,5.174,0,0,1-4.061-1.863c-.066-.074-.359-.513-1.378-2.186-.568-.914-1.109-1.359-1.655-1.359a4.461,4.461,0,0,0-3.088,1.7,12.891,12.891,0,0,0-2.418,3.851c-.439,1.072-.885,2.151-1.329,3.22a2,2,0,0,1-1.751,1.268c-.809,0-1.473-.706-1.974-2.1a9.95,9.95,0,0,1-.629-3.469c0-.295.013-.676.038-1.129.051-.61.084-1.168.1-1.655.029-.7-.073-.9-.165-.992a.3.3,0,0,0-.217-.095c-.33,0-.457.473-.535.935a21.289,21.289,0,0,0-.371,3.421,10.654,10.654,0,0,0,1.3,5.435c.843,1.418,1.824,2.137,2.917,2.137.907,0,1.688-.684,2.327-2.043q.853-2.075,1.684-4.142a6.692,6.692,0,0,1,1.731-2.143,3.157,3.157,0,0,1,1.941-1.034c.317.021.657.378.985,1.033a10.918,10.918,0,0,0,1.4,2.227,6.322,6.322,0,0,0,5.144,2.032,20.686,20.686,0,0,0,3.226-.248,3.532,3.532,0,0,1,.095.738.891.891,0,0,0,.113.7.371.371,0,0,0,.287.124c.218,0,.347-.222.424-.388a3.065,3.065,0,0,0,.315-1.389,38.471,38.471,0,0,0,8.8-3.338c2.97-1.478,4.914-2.2,5.821-2.154.234.022.418-.195.758-1.341.359-1.21.3-1.3.25-1.385Zm-6.207,1.987a37.015,37.015,0,0,1-9.9,3.333,35.856,35.856,0,0,0-1.542-3.3.264.264,0,0,1-.021-.118,1.759,1.759,0,0,1,.629-1.093,2.058,2.058,0,0,1,1.147-.7,11.373,11.373,0,0,1,1.136-.057,16.31,16.31,0,0,1,4.776.884c1.731.542,2.974.887,3.77,1.046" transform="translate(-255.463 -385.657)" fill="#fff"/>
      </g>
      <g id="Group_3314" data-name="Group 3314" transform="translate(55.319 112.755)">
        <path id="Path_3314" data-name="Path 3314" d="M374.1,418.068l-.067-.014c-.209,0-.469.172-1.13,2.23l-.008.051c0,.28.318.6,1.04,1.041q.735.386,1.45.792l.117.067.091-.1a3.98,3.98,0,0,0,.713-1.377,4.118,4.118,0,0,0,.261-1.119c0-.258-.3-.628-2.467-1.57" transform="translate(-372.897 -418.054)" fill="#fff"/>
      </g>
      <g id="Group_3315" data-name="Group 3315" transform="translate(51.772 113.272)">
        <path id="Path_3315" data-name="Path 3315" d="M367.831,420.53a7.9,7.9,0,0,1-1.573-1.155l-.172-.172-.1.221a9.616,9.616,0,0,0-.965,2.454c0,.2.135.506,1.189,1.135.966.557,1.15.6,1.248.6.327,0,.595-.3.817-.924a3.589,3.589,0,0,0,.262-1.221,1.129,1.129,0,0,0-.705-.941" transform="translate(-365.02 -419.203)" fill="#fff"/>
      </g>
      <g id="Group_3316" data-name="Group 3316" transform="translate(41.897 78.555)">
        <path id="Path_3316" data-name="Path 3316" d="M394.1,348.262l.016.014a.614.614,0,0,0,.353.15c.048,0,.285-.018.285-.363,0-.785-.66-2.414-2.008-4.965-.324-.829-.514-1-.7-1-.076,0-.214.033-.277.253a11.429,11.429,0,0,0-.628,2.513.862.862,0,0,0,.148.525,3.8,3.8,0,0,1,.319.48c.116,2.16.285,4.124.5,5.838,1.3,10,1.956,15.665,1.956,16.841a.616.616,0,0,1-.023.238,2.534,2.534,0,0,1-.981,1.187,4.632,4.632,0,0,1-2.3.441,2.954,2.954,0,0,1-2.121-1.241,8.3,8.3,0,0,1-1.762-4.5q-.29-2.908-.581-5.8c-.361-3.54-.785-6.856-1.261-9.855-1.088-6.907-1.555-6.907-1.833-6.907a.373.373,0,0,0-.315.192l-.026.066a21.006,21.006,0,0,1-.443,2.394l.078.052-.122.009c.013.435.229,2.027.66,4.863.761,5.55,1.281,9.461,1.589,11.959.141,1.035.238,2.177.289,3.4a22.812,22.812,0,0,1-.076,3.595c-.057.441-.475.847-1.241,1.206a6.041,6.041,0,0,1-2.584.566,2.888,2.888,0,0,1-1.412-.394,2.312,2.312,0,0,1-.816-.955q-.208-.5-.307-.772c.14-.449.156-.692.054-.834a.279.279,0,0,0-.189-.111c-.159-.024-.356.067-.65.29l-.046.054a16.884,16.884,0,0,0-.815,1.631c-.591,1.144-1.309,1.655-2.2,1.557a2.615,2.615,0,0,1-1.634-1.22,13.936,13.936,0,0,0,.409-1.345c0-.265-.226-.392-.555-.229l-.044.032a8.493,8.493,0,0,0-1.3,1.6,4.408,4.408,0,0,1-1.379,1.359,3.8,3.8,0,0,1-1.986.634,2.522,2.522,0,0,1-2.379-1.743l.283-.958a2.186,2.186,0,0,0,.114-.561.279.279,0,0,0-.022-.095l.008-.01-.02-.043c0-.006-.005-.012-.009-.018l-.017-.035-.08-.1h-.032l-.06-.059-.046.059-.4.236-.132.055c-2.5,1.312-4.432,1.977-5.755,1.977a4.417,4.417,0,0,1-2.343-1.377,4.752,4.752,0,0,1-.288-.588,2.334,2.334,0,0,0,.144-.715c0-.242-.072-.389-.215-.438-.2-.067-.45.05-1.055.836a7.829,7.829,0,0,0-.5.919,2.172,2.172,0,0,1-.53.774,4.549,4.549,0,0,1-2.6.589,3.011,3.011,0,0,1-2.141-1.241,8.207,8.207,0,0,1-1.78-4.5q-.214-2.538-.408-5.079c-.271-3.107-.643-6.183-1.107-9.141a42.08,42.08,0,0,0-1.226-5.274c-.8-2.678-1.2-3.047-1.518-3.047a.343.343,0,0,0-.3.179l-.019.046c-.229.944-.437,1.73-.618,2.337l-.007.048a21.014,21.014,0,0,0,.7,2.454,27.08,27.08,0,0,1,.983,3.929c.5,3.337.952,6.967,1.337,10.788a43.918,43.918,0,0,0,1.091,7.048,7.341,7.341,0,0,0,1.606,2.759,4.564,4.564,0,0,0,3.4,1.742,3.734,3.734,0,0,0,2.675-1.074A7.086,7.086,0,0,0,356,370.687a2.346,2.346,0,0,0,.355.963,4.245,4.245,0,0,0,1.652,1.335,3.742,3.742,0,0,0,1.588.483,7.2,7.2,0,0,0,2.137-.69,13.373,13.373,0,0,0,2.739-1.417,3.739,3.739,0,0,0,.791,2.533,2.8,2.8,0,0,0,2.241.971,4.732,4.732,0,0,0,3.209-1.376c.485-.554.855-1.009,1.1-1.358a5.884,5.884,0,0,0,.393,1.047,2.009,2.009,0,0,0,1.828.834c1.227,0,2.336-.99,3.3-2.945a2.837,2.837,0,0,0,.458,1.09,3.826,3.826,0,0,0,3.22,1.312,4.459,4.459,0,0,0,3.118-1.207,6.319,6.319,0,0,0,1.829-3.771c.969,3.3,2.582,4.978,4.8,4.978a4.431,4.431,0,0,0,3.625-2.1c.833-1.149,1.228-3,1.175-5.525-.782-7.444-1.5-13.6-2.137-18.307.5.546.646.708.669.73" transform="translate(-343.089 -342.1)" fill="#fff"/>
      </g>
      <g id="Group_3317" data-name="Group 3317" transform="translate(100.376 91.367)">
        <path id="Path_3317" data-name="Path 3317" d="M474.116,373.893q.758.428,1.536.836l.116.061.087-.1a4.177,4.177,0,0,0,.713-1.358,4.127,4.127,0,0,0,.261-1.1c0-.279-.32-.674-2.641-1.667l-.066-.014c-.183,0-.362.181-.739,1.1a4.584,4.584,0,0,0-.419,1.178c0,.2.137.486,1.151,1.058" transform="translate(-472.965 -370.553)" fill="#fff"/>
      </g>
      <g id="Group_3318" data-name="Group 3318" transform="translate(96.364 91.593)">
        <path id="Path_3318" data-name="Path 3318" d="M466.976,375.78c.328,0,.6-.3.818-.928a3.853,3.853,0,0,0,.242-1.218c0-.393-.307-.757-.936-1.114a9.531,9.531,0,0,1-1.807-1.292l-.172-.172-.1.221a9.64,9.64,0,0,0-.965,2.454c0,.21.169.525,1.418,1.268,1.281.78,1.42.78,1.5.78" transform="translate(-464.055 -371.056)" fill="#fff"/>
      </g>
      <g id="Group_3319" data-name="Group 3319" transform="translate(96.829 95.042)">
        <path id="Path_3319" data-name="Path 3319" d="M488.991,383.821h0a18.767,18.767,0,0,1-1.729-2.156,6.285,6.285,0,0,0,.672.033c.45,0,.5-.254.5-.363,0-.212-.173-.456-.554-.775-.933-.691-1.736-1.272-2.369-1.713a.361.361,0,0,0-.37-.116c-.206.067-.28.338-.32.548-.1.818-.173,1.478-.212,1.965a.285.285,0,0,0,.035.249.467.467,0,0,0,.378.162,12.49,12.49,0,0,0,2.437,4.017,14.718,14.718,0,0,1,2.1,2.764c0,.011.02.272-1.475,1.105a7.535,7.535,0,0,1-3.563,1.007,5.173,5.173,0,0,1-4.06-1.863c-.054-.061-.306-.426-1.378-2.186-.569-.914-1.11-1.359-1.656-1.359a4.462,4.462,0,0,0-3.088,1.7,12.87,12.87,0,0,0-2.417,3.851c-.44,1.072-.885,2.15-1.33,3.22a2,2,0,0,1-1.751,1.268c-.809,0-1.473-.706-1.974-2.1a9.942,9.942,0,0,1-.629-3.469c0-.295.013-.677.038-1.13.053-.629.084-1.171.1-1.654.029-.7-.073-.9-.165-.992a.294.294,0,0,0-.217-.095c-.331,0-.456.472-.535.934a21.339,21.339,0,0,0-.371,3.421,10.655,10.655,0,0,0,1.3,5.436c.842,1.418,1.824,2.137,2.917,2.137.907,0,1.689-.684,2.327-2.042q.854-2.075,1.684-4.142a6.708,6.708,0,0,1,1.731-2.143,3.182,3.182,0,0,1,1.941-1.034c.317.022.658.378.986,1.033a10.947,10.947,0,0,0,1.4,2.227,6.336,6.336,0,0,0,5.145,2.032,5.935,5.935,0,0,0,2.815-.893,7.408,7.408,0,0,0,2.043-1.55,5.1,5.1,0,0,0,1.4-4.068,6.859,6.859,0,0,0-1.784-3.265" transform="translate(-465.087 -378.716)" fill="#fff"/>
      </g>
      <g id="Group_3320" data-name="Group 3320" transform="translate(114.272 86.625)">
        <path id="Path_3320" data-name="Path 3320" d="M504.5,363.551h0q1.124.582,2.268,1.163l.122.062.086-.107a3.724,3.724,0,0,0,.832-2.393c0-.336-.351-.662-1.106-1.025a9.4,9.4,0,0,1-1.88-1.061l-.2-.168-.073.25c-.432,1.483-.6,2.058-.67,2.277l-.054-.01v.2c0,.3.226.571.671.808" transform="translate(-503.828 -360.023)" fill="#fff"/>
      </g>
      <g id="Group_3321" data-name="Group 3321" transform="translate(123.518 86.754)">
        <path id="Path_3321" data-name="Path 3321" d="M565.71,376.01h0c-.277-.725-.526-1.049-.807-1.049a.322.322,0,0,0-.281.178,3.788,3.788,0,0,0-.431,2.258,1.433,1.433,0,0,0,.364.79c.266.353.3.5.3.548,0,0-.006.136-.528.326a2.694,2.694,0,0,1-.874.184,2.365,2.365,0,0,1-1.926-1.028,9.52,9.52,0,0,0,.428-1.652c0-.354-.213-.385-.326-.377a.909.909,0,0,0-.189.071l-.04.028a5.349,5.349,0,0,0-1.2,1.662c-.714,1.589-1.716,2.362-3.064,2.362a2.437,2.437,0,0,1-2.227-1.564c.091-.565.135-.86.147-.983s.02-.245.02-.327c0-.432-.24-.479-.343-.479-.083,0-.211.029-.522.243a29.492,29.492,0,0,1-4.022,2.446,11.751,11.751,0,0,1-4.6.781,2.875,2.875,0,0,1-2.233-1.294,9.564,9.564,0,0,1-1.728-4.3,61.955,61.955,0,0,0-1.731-7.387c-2.325-7.133-2.82-7.133-3.087-7.133a.373.373,0,0,0-.316.192l-.381,2.393.012.037c.607,1.975,1.214,3.8,1.8,5.431.756,2.256,1.165,3.54,1.216,3.816l.338,1.745a13.918,13.918,0,0,1-3.173,3.911c-.448.4-1.175.961-2.158,1.675a17.892,17.892,0,0,1-4.012,2.15,8.827,8.827,0,0,1-2.285.667c-1.484,0-2.24-.639-2.312-1.954-.089-1.434.694-3.759,2.327-6.909a2.529,2.529,0,0,0,.349-1.066c0-.254-.147-.344-.286-.344-.171,0-.414.111-.921.935a15.915,15.915,0,0,0-2.639,7.9c0,3.019,1.048,4.549,3.114,4.549,1.888,0,4.211-.989,6.9-2.94a20,20,0,0,0,4.888-4.676,6.262,6.262,0,0,0,.7-1.562c.7,2.836,1.412,4.631,2.171,5.478a4.6,4.6,0,0,0,3.44,1.742,10.509,10.509,0,0,0,5.042-1.4A26.374,26.374,0,0,0,553.713,380a3.165,3.165,0,0,0,.859,2.349,3.018,3.018,0,0,0,2.191.843A3.157,3.157,0,0,0,559.5,381.9a13.408,13.408,0,0,0,.926-1.464c.278.325.554.657.838,1.005a2.515,2.515,0,0,0,1.742.7c2.041,0,3.076-1.446,3.076-4.3a5.185,5.185,0,0,0-.369-1.833" transform="translate(-524.362 -360.308)" fill="#fff"/>
      </g>
      <g id="Group_3322" data-name="Group 3322" transform="translate(82.941 111.079)">
        <path id="Path_3322" data-name="Path 3322" d="M434.347,418.628c1.379-1.141,2.08-1.917,2.145-2.373a.62.62,0,0,0-.564-.8,1.115,1.115,0,0,0-.651.1c-.065.033-.11.056-.145.071.02-.057.044-.126.072-.215.29-.8.743-1.15,1.387-1.063.325.049.745.205.622,1.084a3.408,3.408,0,0,1-.883,1.672,6.418,6.418,0,0,1-1.958,1.55,1.393,1.393,0,0,0-.128.066c.028-.027.065-.057.1-.09" transform="translate(-434.244 -414.333)" fill="#fff"/>
      </g>
      <g id="Group_3323" data-name="Group 3323" transform="translate(36.126 90.258)">
        <path id="Path_3323" data-name="Path 3323" d="M330.376,372.385c1.379-1.141,2.08-1.917,2.145-2.373a.62.62,0,0,0-.564-.8,1.115,1.115,0,0,0-.651.1c-.065.033-.11.056-.145.071.02-.057.044-.126.072-.215.29-.8.743-1.15,1.387-1.063.325.049.745.205.622,1.084a3.408,3.408,0,0,1-.883,1.672,6.417,6.417,0,0,1-1.958,1.55,1.4,1.4,0,0,0-.128.066c.028-.027.065-.057.1-.09" transform="translate(-330.273 -368.09)" fill="#fff"/>
      </g>
      <g id="Group_3324" data-name="Group 3324" transform="translate(11.979 110.562)">
        <path id="Path_3324" data-name="Path 3324" d="M276.747,417.48c1.379-1.14,2.08-1.916,2.145-2.373a.62.62,0,0,0-.564-.8,1.115,1.115,0,0,0-.651.1c-.065.033-.11.056-.145.071.02-.057.044-.126.072-.215.29-.8.743-1.15,1.387-1.063.325.049.745.205.622,1.084a3.409,3.409,0,0,1-.883,1.672,6.408,6.408,0,0,1-1.958,1.549c-.049.023-.092.045-.128.066.028-.027.065-.057.1-.091" transform="translate(-276.644 -413.185)" fill="#fff"/>
      </g>
      <g id="Group_3325" data-name="Group 3325" transform="translate(107.886 111.079)">
        <path id="Path_3325" data-name="Path 3325" d="M489.747,418.628c1.379-1.141,2.08-1.917,2.145-2.373a.62.62,0,0,0-.564-.8,1.115,1.115,0,0,0-.651.1c-.065.033-.11.056-.145.071.02-.057.044-.126.072-.215.29-.8.743-1.15,1.387-1.063.325.049.745.205.622,1.084a3.407,3.407,0,0,1-.883,1.672,6.417,6.417,0,0,1-1.958,1.55,1.4,1.4,0,0,0-.128.066c.028-.027.065-.057.1-.09" transform="translate(-489.644 -414.333)" fill="#fff"/>
      </g>
      <g id="Group_3326" data-name="Group 3326" transform="translate(127.224 79.757)">
        <path id="Path_3326" data-name="Path 3326" d="M546.341,344.775a2.684,2.684,0,0,0-.4.136c-3.817,1.453-8.59,3.331-12.4,4.791-.559.216-.488.164-.726.737-.087.186-.133.4-.2.589a.218.218,0,0,0-.018.117.528.528,0,0,0,.09.1c.131-.048.259-.1.387-.153,1.476-.607,6.917-2.951,8.418-3.567,2.379-.956,1.8-.576,4.195-1.531a.951.951,0,0,0,.6-.555c.056-.141.116-.272.178-.41a.242.242,0,0,0-.015-.235.11.11,0,0,0-.1-.024" transform="translate(-532.593 -344.769)" fill="#fff"/>
      </g>
      <g id="Group_3327" data-name="Group 3327" transform="translate(104.838 80.747)">
        <path id="Path_3327" data-name="Path 3327" d="M496.623,346.973a2.68,2.68,0,0,0-.4.136c-3.817,1.453-8.59,3.331-12.4,4.791-.559.216-.488.164-.726.737-.087.186-.133.4-.2.589a.219.219,0,0,0-.018.117.525.525,0,0,0,.09.1c.131-.048.259-.1.387-.153,1.476-.607,6.917-2.952,8.418-3.567,2.379-.956,1.8-.576,4.195-1.531a.951.951,0,0,0,.6-.555c.056-.141.116-.271.178-.41a.242.242,0,0,0-.015-.235.11.11,0,0,0-.1-.024" transform="translate(-482.875 -346.967)" fill="#fff"/>
      </g>
      <g id="Group_3328" data-name="Group 3328" transform="translate(51.253 87.475)">
        <path id="Path_3328" data-name="Path 3328" d="M377.617,361.915a2.687,2.687,0,0,0-.4.136c-3.817,1.453-8.59,3.331-12.4,4.791-.559.216-.488.164-.726.737-.087.186-.133.4-.2.589a.218.218,0,0,0-.018.117.526.526,0,0,0,.09.1c.131-.048.259-.1.387-.153,1.476-.607,6.917-2.951,8.418-3.567,2.379-.956,1.8-.576,4.195-1.531a.951.951,0,0,0,.6-.555c.056-.141.116-.272.178-.41a.243.243,0,0,0-.015-.235.11.11,0,0,0-.1-.024" transform="translate(-363.869 -361.909)" fill="#fff"/>
      </g>
      <g id="Group_3329" data-name="Group 3329" transform="translate(21.993 85.762)">
        <path id="Path_3329" data-name="Path 3329" d="M312.633,358.112a2.691,2.691,0,0,0-.4.136c-3.817,1.453-8.59,3.331-12.4,4.791-.559.216-.488.164-.726.737-.087.186-.133.4-.2.589a.219.219,0,0,0-.018.117.527.527,0,0,0,.09.1c.131-.048.259-.1.387-.153,1.476-.607,6.917-2.951,8.418-3.567,2.379-.956,1.8-.576,4.195-1.531a.951.951,0,0,0,.6-.555c.056-.141.116-.271.178-.41a.243.243,0,0,0-.015-.235.11.11,0,0,0-.1-.024" transform="translate(-298.885 -358.106)" fill="#fff"/>
      </g>
      <g id="Group_3330" data-name="Group 3330" transform="translate(145.7 83.987)">
        <path id="Path_3330" data-name="Path 3330" d="M587.373,354.17a2.691,2.691,0,0,0-.4.136c-3.817,1.453-8.59,3.331-12.4,4.791-.559.216-.488.164-.726.737-.087.186-.133.4-.2.589a.219.219,0,0,0-.018.117.525.525,0,0,0,.09.1c.131-.048.259-.1.387-.153,1.476-.607,6.917-2.951,8.418-3.567,2.379-.956,1.8-.576,4.195-1.531a.951.951,0,0,0,.6-.555c.056-.141.116-.271.178-.41a.243.243,0,0,0-.015-.235.11.11,0,0,0-.1-.024" transform="translate(-573.625 -354.164)" fill="#fff"/>
      </g>
      <g id="Group_3331" data-name="Group 3331" transform="translate(58.406 86.238)">
        <path id="Path_3331" data-name="Path 3331" d="M396.921,365.516c.643-1.99-1.5-4.957.93-6.353a1.979,1.979,0,0,1,1.175,2.651c-.432-.607-1.408-2.282-2.061-1.036.141,1.919.987,3.979-.057,5.808l-.419-.042a16.3,16.3,0,0,0-1.249-2.738c-2.354,3.943-11.489,6.048-15.486,7.366,3.586-1.864,11.731-4.5,14.853-7.15a1.78,1.78,0,0,1-.332-2.792c1.534.933,1.722,2.906,2.646,4.285" transform="translate(-379.754 -359.163)" fill="#fff"/>
      </g>
      <g id="Group_3332" data-name="Group 3332" transform="translate(150.051 87.489)">
        <path id="Path_3332" data-name="Path 3332" d="M584.557,362.132c-.769,2.477-1,3.974-.722,4.58a.9.9,0,0,0,1.319.526,1.627,1.627,0,0,0,.711-.638c.052-.092.089-.154.119-.2.022.084.047.187.082.317.285,1.206.009,1.986-.841,2.39-.431.2-1.066.34-1.614-.822a4.968,4.968,0,0,1-.252-2.73,9.263,9.263,0,0,1,1.149-3.431c.042-.066.075-.129.1-.182-.014.057-.036.121-.056.191" transform="translate(-583.288 -361.941)" fill="#fff"/>
      </g>
      <g id="Group_3333" data-name="Group 3333" transform="translate(52.879 80.337)">
        <path id="Path_3333" data-name="Path 3333" d="M368.747,346.249c-.769,2.477-1,3.974-.722,4.58a.9.9,0,0,0,1.319.526,1.626,1.626,0,0,0,.711-.638c.052-.092.089-.154.119-.2.022.084.047.187.082.317.285,1.207.009,1.986-.841,2.39-.431.2-1.066.34-1.614-.822a4.969,4.969,0,0,1-.252-2.73,9.263,9.263,0,0,1,1.149-3.431c.042-.066.075-.129.1-.182-.014.057-.036.121-.056.191" transform="translate(-367.478 -346.058)" fill="#fff"/>
      </g>
      <g id="Group_3334" data-name="Group 3334" transform="translate(15.808 81.703)">
        <path id="Path_3334" data-name="Path 3334" d="M286.417,349.282c-.769,2.477-1,3.975-.722,4.58a.9.9,0,0,0,1.319.526,1.627,1.627,0,0,0,.711-.638c.052-.092.089-.154.119-.2.022.084.047.187.082.317.285,1.207.009,1.986-.841,2.39-.431.2-1.066.34-1.614-.822a4.969,4.969,0,0,1-.252-2.73,9.263,9.263,0,0,1,1.149-3.431c.042-.066.075-.129.1-.182-.014.057-.036.121-.056.191" transform="translate(-285.148 -349.091)" fill="#fff"/>
      </g>
      <g id="Group_3335" data-name="Group 3335" transform="translate(37.622 106.484)">
        <path id="Path_3335" data-name="Path 3335" d="M334.863,404.318c-.769,2.477-1,3.975-.722,4.58a.9.9,0,0,0,1.319.526,1.627,1.627,0,0,0,.711-.638c.052-.092.089-.154.119-.2.022.084.047.187.082.317.285,1.207.009,1.986-.841,2.39-.431.2-1.066.34-1.614-.822a4.969,4.969,0,0,1-.252-2.73,9.263,9.263,0,0,1,1.149-3.431c.042-.066.075-.129.1-.182-.014.057-.036.121-.056.191" transform="translate(-333.594 -404.127)" fill="#fff"/>
      </g>
      <g id="Group_3336" data-name="Group 3336" transform="translate(136.908 108.231)">
        <path id="Path_3336" data-name="Path 3336" d="M555.369,408.2c-.769,2.477-1,3.974-.722,4.58a.9.9,0,0,0,1.319.526,1.626,1.626,0,0,0,.711-.638c.052-.092.089-.154.119-.2.022.084.047.187.082.317.285,1.207.009,1.986-.841,2.39-.431.2-1.066.34-1.614-.822a4.969,4.969,0,0,1-.252-2.73,9.263,9.263,0,0,1,1.149-3.431c.042-.066.075-.129.1-.182-.014.057-.036.121-.056.191" transform="translate(-554.1 -408.008)" fill="#fff"/>
      </g>
      <g id="Group_3337" data-name="Group 3337" transform="translate(15.841 44.425)">
        <path id="Path_3337" data-name="Path 3337" d="M437.371,268.235a25.547,25.547,0,0,1-1.075,5.015c-.067.195-.21.384-.42.353-2.108-.286-8.085,8.8-10.854,11.038a2.435,2.435,0,0,1-4.1-1.428,18.94,18.94,0,0,1-.24-5.266,16.946,16.946,0,0,0-.056-1.9c-.343.015-.967.578-1.5,1.136s-.987,1.115-.987,1.115c-.358.476-.711.952-1.07,1.428-1.448,2.175-2.835,4.4-5.056,5.946a2.329,2.329,0,0,1-1.126.481c-1.039.522-2.512-.538-2.733-2.068a.126.126,0,0,1-.036-.133,5.765,5.765,0,0,1-.384-2.2,23.5,23.5,0,0,1-.163-3.111,5.4,5.4,0,0,0-.3-1.633c-.42-1.028-.568-1.121-1.658-.875a46.309,46.309,0,0,0-4.5,1.489c-26.59,9.211-58.711,11.632-70.681,1.781a14.82,14.82,0,0,1-3.889-5.813c-.665-.66-1.213-.348-1.735.2-.215.226-.665.666-.665.666s-4.969,8.7-11.161,11.079a21.986,21.986,0,0,1-7.21,1.581,57.966,57.966,0,0,1-9.314-.542c-4.135-.456-11.32-2.927-11.243-3.224.092-.353.466-.333.752-.292,1.417.21,7.492.435,9.109.368a50.418,50.418,0,0,0,8.361-.9c.552-.118.614-.148.614-.159.261-.056,9.6-2.037,12.527-4.038a15.756,15.756,0,0,0,6.3-6.054c.711-1.218,3.833-6.356,5.629-5.962.368.128.368.543.348.8a7.312,7.312,0,0,0,.276,1.9,8.223,8.223,0,0,0,3.531,5.046c19.989,15.342,74.468-3.193,74.744-3.27.9-.256,2.835-.6,2.829,1.116-.01,1.381-.046,2.753-.128,4.129a13.164,13.164,0,0,0,.271,3.224.176.176,0,0,1,.041.067c.133.22.271.445.4.665a.121.121,0,0,0-.118.01.939.939,0,0,0,.118-.01h.005c.21.144.419.287.629.425a.118.118,0,0,0-.128-.005.978.978,0,0,0,.128.005c.174-.005.353-.015.532-.021.3-.148.593-.3.89-.44,2.477-1.832,6.238-8.889,9.36-10.526.6-.42.946-.154,1.126.512.517,1.965.118,3.951.236,5.921a9.034,9.034,0,0,0,.384,2.779c.312.819.742,1.023,1.561.6a9.5,9.5,0,0,0,2.164-1.627c2.139-2.073,6.049-8.725,8.93-9.907.588-.256.778.092.722.522" transform="translate(-285.222 -266.299)" fill="#fff"/>
      </g>
    </g>
  </g>
</svg>
