<svg id="Group_54566" data-name="Group 54566" xmlns="http://www.w3.org/2000/svg" xmlns:xlink="http://www.w3.org/1999/xlink" width="30" height="30" viewBox="0 0 30 30">
  <defs>
    <clipPath id="clip-path">
      <path id="SVGID" d="M116.064,55.307a15,15,0,1,0,15-15A15,15,0,0,0,116.064,55.307Z" transform="translate(-116.064 -40.308)" fill="#f5eee6"/>
    </clipPath>
  </defs>
  <g id="Group_7094" data-name="Group 7094" transform="translate(0)">
    <path id="SVGID-2" data-name="SVGID" d="M116.064,55.307a15,15,0,1,0,15-15A15,15,0,0,0,116.064,55.307Z" transform="translate(-116.064 -40.308)" fill="#f5eee6"/>
    <g id="Group_7093" data-name="Group 7093" clip-path="url(#clip-path)">
      <path id="Path_2721" data-name="Path 2721" d="M114.928,73.146a5.59,5.59,0,0,1,3.04-3.171,3.677,3.677,0,0,1,.747-.314c.834-.19,1.66-.413,2.48-.658a1.082,1.082,0,0,0,.766-.267,12.488,12.488,0,0,0,1.814-.772.8.8,0,0,0,.526-.243c.1-.028.19-.1.293-.125a1.3,1.3,0,0,0,.732-.464c.114-.075.234-.142.341-.227a.457.457,0,0,0,.256-.331c.05-.216.114-.428.172-.642a4.517,4.517,0,0,0,.128-.661c.026-.123.056-.23.193-.267.132-.066.257,0,.381.023.253.055.391-.024.431-.293.028-.193.081-.387.091-.577.02-.425.084-.876-.324-1.189a16.875,16.875,0,0,1-1.113-3.013c-.065-.233-.174-.43-.484-.438a.439.439,0,0,1-.4-.337,11.528,11.528,0,0,0-.639-1.794,7.752,7.752,0,0,1-.312-1.243c0-.088-.019-.174-.011-.261a.231.231,0,0,1,.05-.092.269.269,0,0,0,.046-.035c-.008-.186-.023-.372-.016-.556a.534.534,0,0,1,.388-.542c.234-.061.277-.19.263-.4-.054-.818-.1-1.638-.149-2.457a.088.088,0,0,1,.009-.076.045.045,0,0,1,0-.049c.024-.249.045-.5.074-.744a4.16,4.16,0,0,1,.441-1.717,5.976,5.976,0,0,1,2.479-2.324,10.751,10.751,0,0,1,2.816-.869A6.032,6.032,0,0,1,135.8,47.4a.184.184,0,0,0-.012.042h0a1.181,1.181,0,0,1,.415.447,3.59,3.59,0,0,0,.742.9,2.005,2.005,0,0,1,.723,1.774.307.307,0,0,1,.058.033.374.374,0,0,1,.064.091,8.321,8.321,0,0,1-.03,1.749,7.47,7.47,0,0,0-.188,1.508.469.469,0,0,0,.323.559.8.8,0,0,1,.522.723,2.552,2.552,0,0,1-.038,1.031c-.133.481-.272.96-.427,1.434a3.908,3.908,0,0,0-.484,1.3.66.66,0,0,1-.444.566.561.561,0,0,0-.38.445c-.077.35-.207.684-.314,1.024a2.108,2.108,0,0,0-.331.847.311.311,0,0,1-.024.1,3.383,3.383,0,0,0-.521,3.047c.2.216.4-.01.6-.013s.37-.023.419.225c.154.483.237.984.389,1.467a.9.9,0,0,0,.468.583,9.609,9.609,0,0,0,1.7.7,5.331,5.331,0,0,0,1.313.528c.86.317,1.762.5,2.646.736a8.457,8.457,0,0,1,3.039,1.343,5.523,5.523,0,0,1,1.293,1.764c0,.314-.018.63.006.943.018.244-.05.3-.3.3q-16.028-.011-32.055-.007C114.825,73.457,114.864,73.312,114.928,73.146Z" transform="translate(-116.698 -42.887)" fill="#805c41" fill-rule="evenodd"/>
    </g>
  </g>
</svg>
