<svg xmlns="http://www.w3.org/2000/svg" width="536" height="375.475" viewBox="0 0 536 375.475">
  <g id="Group_54562" data-name="Group 54562" transform="translate(-250.04 -167.636)">
    <g id="Group_3340" data-name="Group 3340" transform="translate(250.04 167.636)">
      <g id="Group_3288" data-name="Group 3288" transform="translate(101.073 179.627)">
        <path id="Path_3288" data-name="Path 3288" d="M331.628,309.774a3.146,3.146,0,0,1-1.454-.792l-.006.006.006-.006c-3.1-2.537-8.457-10.543-9.777-15.111l4.14-1.2c1.7,5.876,7.832,12.521,8.7,13.321l-1.424,1.543,1.589-1.4.352,2.468Z" transform="translate(-320.397 -292.675)" fill="#805c41"/>
      </g>
      <g id="Group_3289" data-name="Group 3289" transform="translate(114.577 170.668)">
        <path id="Path_3289" data-name="Path 3289" d="M359.038,302.47a31.949,31.949,0,0,1-5.6-.534c-9.8-1.77-19.968-7.433-23.646-13.17l3.629-2.326c3,4.679,12.321,9.727,20.783,11.255,5.11.921,9.2.473,11.51-1.264l2.587,3.448A15.345,15.345,0,0,1,359.038,302.47Z" transform="translate(-329.797 -286.439)" fill="#805c41"/>
      </g>
      <g id="Group_3290" data-name="Group 3290" transform="translate(96.077 123.055)">
        <path id="Path_3290" data-name="Path 3290" d="M319.509,296.353a230.243,230.243,0,0,1-2.406-43.058l4.305.187a225.79,225.79,0,0,0,2.349,42.147Z" transform="translate(-316.92 -253.295)" fill="#805c41"/>
      </g>
      <g id="Group_3291" data-name="Group 3291" transform="translate(106.711 125.764)">
        <path id="Path_3291" data-name="Path 3291" d="M327.939,289.615a159.852,159.852,0,0,1-3.616-34.434l4.31.022a158.547,158.547,0,0,0,3.5,33.41Z" transform="translate(-324.322 -255.181)" fill="#805c41"/>
      </g>
      <g id="Group_3292" data-name="Group 3292" transform="translate(17.511 0.001)">
        <path id="Path_3292" data-name="Path 3292" d="M263.624,222.007l-1.395.51.009-1.494c.075-6.292.04-14.775.182-20.978l.635-.267,19.412-8.2c10.836-4.64,27.923-11.58,38.938-16.121,6.522-2.61,13.022-5.272,19.57-7.824-6.37,2.968-12.787,5.824-19.181,8.734-10.952,4.87-27.684,12.33-38.566,16.993l-19.339,8.364.644-.965c-.024,3.38-.022,6.76-.082,10.141l-.144,10.141-1.386-.984c24.1-8.621,45.394-15.824,69.637-23.8" transform="translate(-262.229 -167.637)" fill="#040506"/>
      </g>
      <g id="Group_3293" data-name="Group 3293" transform="translate(17.466 39.441)">
        <path id="Path_3293" data-name="Path 3293" d="M336.28,206.933c-17.211,4.153-36.584,8-54,11.732l-18.78,3.926-1.3.273c.011-.833-.013-5.446,0-6.386v-.807l.773-.233c24.3-7.3,47-13.794,71.529-20.348-10.543,3.6-23.15,7.574-33.933,11.01-12.3,3.893-24.628,7.67-36.969,11.418l.773-1.04,0,5.051-1.3-1.06,18.808-3.791c17.5-3.443,36.915-6.769,54.4-9.746" transform="translate(-262.198 -195.091)" fill="#040506"/>
      </g>
      <g id="Group_3294" data-name="Group 3294" transform="translate(17.473 58.246)">
        <path id="Path_3294" data-name="Path 3294" d="M337.058,208.181c-18.22,3.989-36.071,7.374-54.512,10.842l-19.069,3.484.888-1.063q-.011,12.856-.152,25.709c-.109,8.569-.231,17.14-.458,25.709l-.931,1.119-.009-1.119c-.434-17.137-.583-34.276-.611-51.418v-.9l.889-.159c24.735-4.459,49.175-8.631,73.966-12.2" transform="translate(-262.203 -208.181)" fill="#040506"/>
      </g>
      <g id="Group_3295" data-name="Group 3295" transform="translate(96.258)">
        <path id="Path_3295" data-name="Path 3295" d="M326.261,196.508c17.592,5.776,32.728,11.212,50.2,17.354l17.44,6.207-1.373.974c-.078-6.76-.236-13.52-.241-20.28l.642.968c-17.755-7.749-39.373-17.329-57-25.354-6.292-2.913-12.609-5.769-18.875-8.741,6.45,2.548,12.851,5.21,19.276,7.816,17.908,7.4,39.665,16.644,57.452,24.32l.629.27c.141,6.993.113,13.988.169,20.981l.013,1.481L393.2,222c-22.923-8.355-44.3-16.564-66.94-25.489" transform="translate(-317.045 -167.636)" fill="#040506"/>
      </g>
      <g id="Group_3296" data-name="Group 3296" transform="translate(106.83 38.876)">
        <path id="Path_3296" data-name="Path 3296" d="M324.4,194.7l1.382,13.3L390.728,222l-1.478-5.353Z" transform="translate(-324.404 -194.698)" fill="#040506"/>
      </g>
      <g id="Group_3297" data-name="Group 3297" transform="translate(18.241 39.441)">
        <path id="Path_3297" data-name="Path 3297" d="M334.267,195.091l1.778,11.842-73.054,14.9-.254-6.394Z" transform="translate(-262.737 -195.091)" fill="#040506"/>
      </g>
      <g id="Group_3298" data-name="Group 3298" transform="translate(106.829 38.876)">
        <path id="Path_3298" data-name="Path 3298" d="M325.786,208c15.572,2.672,32.429,6.048,48.007,9.183l16.765,3.464-1.306,1.06,0-5.051.743,1.03c-14.922-4.991-35.262-12.008-50.074-17.306-5.529-2.028-10-3.587-15.513-5.677,5.66,1.636,10.2,2.994,15.842,4.69,15.029,4.662,35.5,11.263,50.432,16.233l.743.244c.011.368-.011,5.317,0,5.837v1.34l-1.306-.28c-21.334-4.563-43.212-9.5-64.325-14.766" transform="translate(-324.404 -194.698)" fill="#040506"/>
      </g>
      <g id="Group_3299" data-name="Group 3299" transform="translate(108.988 60.053)">
        <path id="Path_3299" data-name="Path 3299" d="M390.739,220.028c-.05,6.381-.116,12.762-.234,19.161l-1.665-.6c-.1-5.6-.167-11.212-.2-16.811-21.659-3.816-41.288-7.44-62.732-12.339C348,212.4,367.945,215.8,389.873,219.861Z" transform="translate(-325.907 -209.439)" fill="#040506"/>
      </g>
      <g id="Group_3300" data-name="Group 3300" transform="translate(84.356 1.227)">
        <path id="Path_3300" data-name="Path 3300" d="M330.208,279.6c0-.72-.241-69.235-10.365-101.383-2.05,3.268-4.818,7.69-6.069,9.688,2.615,5.3,11.936,28.55,11.243,89.67l-4.31-.049c.77-67.876-11.141-88.386-11.261-88.584l-.685-1.135.7-1.132s8.158-13.028,9.121-14.554l2.287-3.627,1.546,4c11.84,30.658,12.1,103.992,12.106,107.1Z" transform="translate(-308.76 -168.49)" fill="#805c41"/>
      </g>
      <g id="Group_3301" data-name="Group 3301" transform="translate(73.004 109.107)">
        <path id="Path_3301" data-name="Path 3301" d="M323.093,247.9a13.6,13.6,0,0,1,3.561.5c15.365,4.178,23.492,5.179,32.333,5.495,2.051.075,4.192.113,6.364.113,3.4,0,6.824-.095,9.942-.26-1.148,1.148-2.217,2.179-3.013,2.948-.418.4-.764.736-1.054,1.02a146.432,146.432,0,0,1-17.441,1.167,69.092,69.092,0,0,1-25.467-4.294,40.288,40.288,0,0,0-9.655-2.448l-.037,0-.036,0c-.477-.034-.965-.052-1.452-.052a23.446,23.446,0,0,0-5.261.625,16.177,16.177,0,0,1,10.234-4.762c.322-.027.654-.042.983-.042m0-4.31c-.448,0-.9.019-1.346.056-4.489.381-11.576,2.421-16.612,10.77-1.452,2.352-3.03,5.67-4.269,8.135-.01.019-.009.027,0,.027.322,0,8.013-6.19,16.268-6.19.379,0,.761.013,1.142.04,8.249.734,14.459,6.759,35.506,6.759a152.608,152.608,0,0,0,19.491-1.391c.494-.769,9.378-8.561,12.362-13.5-2.423.672-10.866,1.395-20.287,1.395-2.04,0-4.127-.034-6.207-.111-8.42-.3-16.367-1.271-31.359-5.347a17.9,17.9,0,0,0-4.692-.646" transform="translate(-300.858 -243.586)" fill="#805c41"/>
      </g>
      <g id="Group_3302" data-name="Group 3302" transform="translate(2.454 119.012)">
        <path id="Path_3302" data-name="Path 3302" d="M415.963,252.62c-.066.718-5,12.784-6.3,15.934-.228.556-.654,1.225-1.388,1-1.959-.589-3.412.636-5.045,1.224a103.438,103.438,0,0,0-16.049,13.143c-6.074,6.172-12.179,12.31-18.776,17.96-.783.669-1.6,1.468-1.6,1.468a116.9,116.9,0,0,1-13.387,8.882s-26.874,10.432-35.608-4.833a20.519,20.519,0,0,1-2.988-8.686c-.213-2.09-.408-4.163-.523-6.253-.228-3.706-2.416-4.866-5.763-2.906a46.814,46.814,0,0,0-8.652,7.085c-6.269,6.074-10.514,13.52-14.743,20.981-2.629,4.636-5.338,9.191-9.73,12.554-7.381,5.633-14.81,4.163-19.463-3.886a28.458,28.458,0,0,1-2.971-8.065c-1.175-4.489-1.388-13.046-1.126-15.641,1.37-13.5,10.269-28.523,18.105-34.661l.8,1.649c-3.478,4.555-11.152,14.564-12.1,26.4-.213,2.629-.082,9.046,2.057,13.356a12.986,12.986,0,0,0,5.7,5.274c3.445,1.159,6.384-.375,9.388-1.649,5.845-3.722,9.519-9.257,13.03-14.955a85.2,85.2,0,0,1,24.048-25.7c5.111-3.609,7.495-1.241,8.507,1.714.636,1.895.31,8.164.424,9.682a16.285,16.285,0,0,0,4.114,9.927c4.473,5.077,10.5,5.8,16.849,4.914,2.139-.294,7.315-1.715,7.315-1.715,4.13-1.06,11.053-6.041,11.053-6.041,8.9-3.527,41.339-36.065,51.544-39.8.75-.277,2.6-.865,3.33-.147.244.261.261.8-.049,1.8" transform="translate(-251.748 -250.481)" fill="#fff"/>
      </g>
      <g id="Group_3303" data-name="Group 3303" transform="translate(207.432 170.441)">
        <path id="Path_3303" data-name="Path 3303" d="M394.434,286.281c.042.03.085.059.128.089a.4.4,0,0,0-.128-.089" transform="translate(-394.434 -286.281)" fill="#133c2a"/>
      </g>
      <g id="Group_3304" data-name="Group 3304" transform="translate(13.554 121.248)">
        <path id="Path_3304" data-name="Path 3304" d="M270.245,274.628l-10.042-7.76a1.877,1.877,0,0,1-.336-2.633l8.862-11.468a1.876,1.876,0,0,1,2.633-.336l10.042,7.76a1.878,1.878,0,0,1,.338,2.633l-8.864,11.467a1.878,1.878,0,0,1-2.633.338" transform="translate(-259.475 -252.038)" fill="#fff"/>
      </g>
      <g id="Group_3305" data-name="Group 3305" transform="translate(34.583 118.167)">
        <path id="Path_3305" data-name="Path 3305" d="M284.884,272.483l-10.042-7.76a1.876,1.876,0,0,1-.338-2.633l8.862-11.468a1.876,1.876,0,0,1,2.633-.336l10.042,7.76a1.876,1.876,0,0,1,.338,2.633l-8.864,11.467a1.876,1.876,0,0,1-2.632.338" transform="translate(-274.113 -249.893)" fill="#fff"/>
      </g>
      <g id="Group_3306" data-name="Group 3306" transform="translate(153.067 202.754)">
        <path id="Path_3306" data-name="Path 3306" d="M368.269,314.085l5.87,5.176-6.368,7.22-5.87-5.176Zm-.214-5.311a1.874,1.874,0,0,0-1.408.635l-9.588,10.87a1.877,1.877,0,0,0,.167,2.649l9.517,8.394a1.877,1.877,0,0,0,2.649-.165l9.588-10.871a1.877,1.877,0,0,0-.167-2.649l-9.517-8.394a1.874,1.874,0,0,0-1.241-.47" transform="translate(-356.591 -308.774)" fill="#805c41"/>
      </g>
      <g id="Group_3307" data-name="Group 3307" transform="translate(174.252 201.04)">
        <path id="Path_3307" data-name="Path 3307" d="M383.016,312.892l5.87,5.176-6.368,7.22-5.87-5.176Zm-.214-5.311a1.874,1.874,0,0,0-1.408.635l-9.588,10.87a1.877,1.877,0,0,0,.167,2.649l9.517,8.394a1.877,1.877,0,0,0,2.649-.165l9.588-10.87a1.877,1.877,0,0,0-.167-2.649l-9.517-8.394a1.874,1.874,0,0,0-1.241-.47" transform="translate(-371.338 -307.581)" fill="#805c41"/>
      </g>
      <g id="Group_3308" data-name="Group 3308" transform="translate(156.623 91.963)">
        <path id="Path_3308" data-name="Path 3308" d="M381.889,243.064a11.411,11.411,0,1,1-11.412-11.412,11.413,11.413,0,0,1,11.412,11.412" transform="translate(-359.066 -231.652)" fill="#fff"/>
      </g>
      <g id="Group_3309" data-name="Group 3309" transform="translate(110.793 165.751)">
        <path id="Path_3309" data-name="Path 3309" d="M749.371,283.016c-7.839,7.917-14.39,17-20.372,26.364-2.069,3.133-3.706,6.4-5.884,9.5-3.4,4.432-8.487,8.424-14.356,8.463a9.256,9.256,0,0,1-5.391-2.329,25.255,25.255,0,0,1-6.95-9.02,23.455,23.455,0,0,1-2.2-11.227l1.633.559c-5.692,7.984-15.781,22.83-25.545,25.307-12.8,1.559-18.971-11.566-20.674-22.163a66.337,66.337,0,0,1-1.075-10.787l2,1.4c-13.784,5.048-27.739,9.376-41.831,13.337-59.753,16.275-167.907,38.741-212.9-16.131l-.427-.536-.108-.134-.045-.04a.812.812,0,0,0-.079-.078c-.138-.152-.124.013.4.056a1.111,1.111,0,0,0,.57-.109c-9.109,12.806-21.139,26.291-37.3,30.406-11.73,3.163-23.986-2.4-31.671-11.258l3.435-3.185c17.426,19.213,37.95,8.6,52.65-7.73a95.337,95.337,0,0,0,6.717-8.272,28.734,28.734,0,0,1,2.8-3.662c2.132-2.082,5.047-1.179,6.5.81,42.505,53.449,150.719,31.609,208.548,16.546,14.731-3.962,29.372-8.387,43.7-13.509v2.112c.149,11.817,3.321,31.617,18.424,30.6,5.281-1.3,9.69-6.194,13.451-10.116a138.977,138.977,0,0,0,10.968-13.866l1.879-2.692L696,304.886a23.5,23.5,0,0,0,8.24,19.047c2.744,2.643,6.427,2.61,9.718,1.075,7.066-2.819,10.546-9.951,14.476-16,6.182-9.259,12.938-18.234,20.941-26" transform="translate(-327.163 -283.016)" fill="#805c41"/>
      </g>
      <g id="Group_3310" data-name="Group 3310" transform="translate(0 145.001)">
        <path id="Path_3310" data-name="Path 3310" d="M410.177,268.572c-5.163,1.21-8.99,5.238-12.834,8.641-3.8,3.591-7.457,7.361-11.23,11.036-7.556,7.3-15.594,14.386-25.059,19.534-16.105,9.191-41.945,11.547-51.416-7.913a33.174,33.174,0,0,1-2.7-7.967l2.073,1.724c-3.547.368-6.569,5.545-8.677,8.568-6.778,10.23-12.248,22.719-23.558,29-9.767,5.377-18.56-.717-23.011-9.628-8.216-17.21-1.76-37.483,8.841-52.055-6.12,10.215-10.372,21.892-10.135,33.844.185,10.526,4.683,24.715,16.522,26.255,3.324-.06,8.4-2.652,11.412-5.906,6.766-6.808,11.138-15.66,16.365-23.808,3.222-4.817,7.158-11.4,14.042-10.542,3.777,25.186,30.35,25.045,48.718,15.521,9.162-4.659,17.351-11.23,25.2-18.124,3.961-3.425,7.835-6.977,11.876-10.363,4.048-3.222,8.272-7.038,13.565-7.816" transform="translate(-250.04 -268.572)" fill="#805c41"/>
      </g>
      <g id="Group_3311" data-name="Group 3311" transform="translate(15.794 295.684)">
        <path id="Path_3311" data-name="Path 3311" d="M265.562,386.046c4.084,2.488,4.525,2.488,4.791,2.488,1.046,0,1.9-.965,2.612-2.959a12.35,12.35,0,0,0,.771-3.886c0-1.25-.978-2.415-2.985-3.555a30.405,30.405,0,0,1-5.766-4.122l-.549-.549-.323.7c-2.729,5.96-3.079,7.316-3.079,7.832,0,.671.539,1.676,4.528,4.047" transform="translate(-261.034 -373.463)" fill="#fff"/>
      </g>
      <g id="Group_3312" data-name="Group 3312" transform="translate(28.594 294.96)">
        <path id="Path_3312" data-name="Path 3312" d="M273.62,383.614q2.418,1.366,4.9,2.666l.371.2.28-.312a13.363,13.363,0,0,0,2.273-4.333,13.155,13.155,0,0,0,.83-3.51c0-.891-1.021-2.152-8.427-5.318l-.211-.044c-.582,0-1.154.576-2.355,3.521-1.339,3.285-1.339,3.57-1.339,3.758,0,.646.437,1.551,3.676,3.376" transform="translate(-269.944 -372.959)" fill="#fff"/>
      </g>
      <g id="Group_3313" data-name="Group 3313" transform="translate(7.791 313.202)">
        <path id="Path_3313" data-name="Path 3313" d="M381.356,395.217l-.261-.026c-5.962-.612-14.776-2.48-26.2-5.549-10.415-2.8-16.677-4.1-19.151-3.976a14.4,14.4,0,0,0-10.616,5.259,17.515,17.515,0,0,0-4.244,11.481c0,1.711,1.133,5.2,3.464,10.664-2.629.24-4.94.361-6.881.361a16.506,16.506,0,0,1-12.955-5.943c-.211-.236-1.145-1.636-4.4-6.973-1.813-2.918-3.54-4.337-5.281-4.337-3.15,0-6.465,1.826-9.852,5.424a41.131,41.131,0,0,0-7.714,12.287c-1.4,3.42-2.823,6.862-4.241,10.274-1.48,2.724-3.307,4.047-5.587,4.047-2.581,0-4.7-2.251-6.3-6.7a31.745,31.745,0,0,1-2.007-11.069c0-.941.04-2.158.122-3.6.164-1.945.269-3.725.312-5.279.092-2.221-.233-2.859-.526-3.165a.944.944,0,0,0-.692-.3c-1.054,0-1.457,1.508-1.707,2.982a67.927,67.927,0,0,0-1.184,10.914c0,6.783,1.4,12.616,4.157,17.341,2.689,4.525,5.821,6.819,9.306,6.819,2.893,0,5.387-2.184,7.424-6.518q2.722-6.62,5.373-13.215a21.348,21.348,0,0,1,5.524-6.837c2.616-2.3,4.693-3.4,6.193-3.3,1.011.068,2.1,1.205,3.143,3.294a34.833,34.833,0,0,0,4.473,7.107c4.175,4.554,9.687,6.743,16.413,6.482a65.986,65.986,0,0,0,10.292-.792,11.269,11.269,0,0,1,.3,2.353,2.842,2.842,0,0,0,.362,2.248,1.185,1.185,0,0,0,.915.4c.7,0,1.106-.707,1.353-1.237a9.776,9.776,0,0,0,1-4.433c7.678-1.618,17.117-5.2,28.06-10.651,9.474-4.716,15.677-7.023,18.572-6.871.746.07,1.333-.621,2.419-4.28,1.146-3.86.96-4.157.8-4.419Zm-19.8,6.338A118.1,118.1,0,0,1,329.98,412.19a114.428,114.428,0,0,0-4.919-10.521.841.841,0,0,1-.066-.376c0-.962.675-2.135,2.008-3.486a6.565,6.565,0,0,1,3.659-2.224,36.288,36.288,0,0,1,3.626-.182,52.036,52.036,0,0,1,15.238,2.82c5.522,1.73,9.487,2.83,12.027,3.336" transform="translate(-255.463 -385.657)" fill="#fff"/>
      </g>
      <g id="Group_3314" data-name="Group 3314" transform="translate(176.493 359.742)">
        <path id="Path_3314" data-name="Path 3314" d="M376.743,418.1l-.214-.045c-.668,0-1.5.549-3.606,7.115l-.026.164c0,.894,1.014,1.912,3.318,3.321q2.344,1.233,4.626,2.525l.375.214.289-.322a12.7,12.7,0,0,0,2.276-4.394,13.144,13.144,0,0,0,.832-3.571c0-.825-.955-2-7.87-5.008" transform="translate(-372.897 -418.054)" fill="#fff"/>
      </g>
      <g id="Group_3315" data-name="Group 3315" transform="translate(165.177 361.392)">
        <path id="Path_3315" data-name="Path 3315" d="M373.989,423.438a25.2,25.2,0,0,1-5.019-3.686l-.547-.549-.323.7c-2.729,5.96-3.079,7.316-3.079,7.831,0,.632.431,1.613,3.794,3.622,3.081,1.779,3.67,1.926,3.981,1.926,1.044,0,1.9-.965,2.607-2.949a11.451,11.451,0,0,0,.836-3.9c0-1.154-.757-2.164-2.25-3" transform="translate(-365.02 -419.203)" fill="#fff"/>
      </g>
      <g id="Group_3316" data-name="Group 3316" transform="translate(133.671 250.629)">
        <path id="Path_3316" data-name="Path 3316" d="M505.825,361.761l.052.044a1.958,1.958,0,0,0,1.126.48c.152,0,.911-.056.911-1.158,0-2.5-2.1-7.7-6.406-15.841-1.034-2.645-1.639-3.186-2.234-3.186-.243,0-.682.106-.885.806-1.347,4.216-2,6.839-2,8.019a2.749,2.749,0,0,0,.473,1.676,12.107,12.107,0,0,1,1.017,1.533c.371,6.893.911,13.159,1.606,18.627,4.142,31.9,6.242,49.978,6.242,53.73a1.963,1.963,0,0,1-.073.76,8.083,8.083,0,0,1-3.129,3.787c-1.557.934-4.024,1.408-7.328,1.408-2.218,0-4.495-1.332-6.768-3.958-2.968-3.407-4.858-8.242-5.623-14.356q-.927-9.277-1.855-18.492c-1.151-11.293-2.505-21.873-4.024-31.443-3.472-22.035-4.96-22.035-5.85-22.035a1.189,1.189,0,0,0-1.006.612l-.082.211c-1.031,6.363-1.33,7.462-1.412,7.638l.249.165-.389.029c.042,1.389.73,6.467,2.106,15.516,2.428,17.707,4.086,30.185,5.071,38.154.448,3.3.759,6.946.922,10.836a72.8,72.8,0,0,1-.243,11.469c-.181,1.408-1.514,2.7-3.961,3.849a19.275,19.275,0,0,1-8.243,1.8,9.214,9.214,0,0,1-4.505-1.258,7.378,7.378,0,0,1-2.6-3.047q-.664-1.61-.98-2.464c.447-1.432.5-2.207.172-2.661a.89.89,0,0,0-.6-.353c-.508-.076-1.136.214-2.073.927l-.147.172a53.867,53.867,0,0,0-2.6,5.2c-1.886,3.649-4.178,5.279-7.01,4.968-1.678-.182-3.431-1.491-5.212-3.892a44.463,44.463,0,0,0,1.3-4.292c0-.845-.72-1.25-1.77-.73l-.141.1a27.1,27.1,0,0,0-4.159,5.11,14.064,14.064,0,0,1-4.4,4.336,12.119,12.119,0,0,1-6.335,2.023c-3.412,0-5.9-1.82-7.589-5.56l.9-3.056a6.975,6.975,0,0,0,.363-1.791.886.886,0,0,0-.072-.3l.026-.032-.065-.136c-.011-.02-.017-.039-.029-.057l-.053-.112-.256-.333h-.1l-.191-.188-.147.187-1.277.753-.42.177c-7.963,4.185-14.141,6.308-18.362,6.308a9.294,9.294,0,0,1-4.113-1.625c-2.253-1.345-3.071-2.248-3.363-2.77a15.169,15.169,0,0,1-.918-1.878,7.446,7.446,0,0,0,.46-2.28c0-.771-.231-1.241-.685-1.4-.628-.213-1.435.159-3.364,2.668a24.99,24.99,0,0,0-1.6,2.933,6.929,6.929,0,0,1-1.691,2.468c-1.75,1.247-4.537,1.879-8.283,1.879-2.217,0-4.515-1.333-6.829-3.961-3.005-3.408-4.917-8.242-5.679-14.346q-.683-8.1-1.3-16.2c-.863-9.914-2.053-19.725-3.531-29.164a134.248,134.248,0,0,0-3.91-16.828c-2.546-8.543-3.831-9.721-4.844-9.721a1.1,1.1,0,0,0-.958.572l-.06.148c-.731,3.011-1.395,5.521-1.972,7.457l-.022.154c0,.175,0,.442,2.248,7.828a86.4,86.4,0,0,1,3.136,12.534c1.6,10.648,3.038,22.228,4.265,34.419,1.112,11,2.284,18.565,3.482,22.485a23.419,23.419,0,0,0,5.124,8.8c3.307,3.688,6.959,5.558,10.85,5.558a11.913,11.913,0,0,0,8.536-3.428,22.6,22.6,0,0,0,3.554-5.445,7.485,7.485,0,0,0,1.133,3.071,13.542,13.542,0,0,0,5.272,4.259,11.939,11.939,0,0,0,5.065,1.541c.6,0,1.967-.228,6.816-2.2a42.656,42.656,0,0,0,8.74-4.522,11.928,11.928,0,0,0,2.524,8.081,8.937,8.937,0,0,0,7.15,3.1c3.581,0,7.012-1.462,10.237-4.39,1.549-1.768,2.727-3.221,3.515-4.334a18.773,18.773,0,0,0,1.254,3.341c1.131,1.767,3.093,2.662,5.832,2.662,3.916,0,7.453-3.159,10.526-9.4a9.051,9.051,0,0,0,1.462,3.477c1.869,2.65,5.321,4.058,10.274,4.186a14.225,14.225,0,0,0,9.948-3.851c3.03-2.777,4.986-6.815,5.834-12.031,3.091,10.542,8.239,15.883,15.324,15.883,4.448,0,8.339-2.26,11.566-6.714,2.656-3.666,3.917-9.582,3.749-17.627-2.5-23.751-4.787-43.387-6.818-58.408,1.587,1.743,2.061,2.26,2.133,2.33" transform="translate(-343.089 -342.1)" fill="#fff"/>
      </g>
      <g id="Group_3317" data-name="Group 3317" transform="translate(320.247 291.503)">
        <path id="Path_3317" data-name="Path 3317" d="M476.638,381.208q2.42,1.366,4.9,2.666l.371.2.279-.312a13.325,13.325,0,0,0,2.276-4.333,13.162,13.162,0,0,0,.832-3.51c0-.891-1.021-2.152-8.427-5.318l-.211-.045c-.583,0-1.155.576-2.357,3.521-1.336,3.284-1.336,3.581-1.336,3.758,0,.646.437,1.55,3.673,3.376" transform="translate(-472.965 -370.553)" fill="#fff"/>
      </g>
      <g id="Group_3318" data-name="Group 3318" transform="translate(307.447 292.226)">
        <path id="Path_3318" data-name="Path 3318" d="M473.374,386.128c1.047,0,1.9-.967,2.61-2.961a12.3,12.3,0,0,0,.773-3.884c0-1.253-.978-2.416-2.985-3.555a30.41,30.41,0,0,1-5.765-4.123l-.549-.549-.323.705c-2.729,5.962-3.08,7.316-3.08,7.831,0,.671.539,1.677,4.525,4.047,4.089,2.49,4.53,2.49,4.794,2.49" transform="translate(-464.055 -371.056)" fill="#fff"/>
      </g>
      <g id="Group_3319" data-name="Group 3319" transform="translate(308.929 303.23)">
        <path id="Path_3319" data-name="Path 3319" d="M541.353,395l0,0a59.874,59.874,0,0,1-5.516-6.878,20.043,20.043,0,0,0,2.145.1c1.437,0,1.592-.81,1.592-1.158,0-.675-.553-1.455-1.767-2.472-2.977-2.2-5.539-4.06-7.558-5.465a1.153,1.153,0,0,0-1.179-.369c-.656.214-.894,1.079-1.021,1.747-.325,2.609-.553,4.716-.677,6.269a.909.909,0,0,0,.112.794,1.491,1.491,0,0,0,1.205.516,39.845,39.845,0,0,0,7.775,12.816c3.9,4.468,6.156,7.433,6.71,8.818.006.034.063.869-4.706,3.527a24.039,24.039,0,0,1-11.369,3.212,16.506,16.506,0,0,1-12.955-5.943c-.174-.194-.975-1.358-4.4-6.975-1.814-2.918-3.541-4.336-5.282-4.336-3.148,0-6.463,1.824-9.852,5.424a41.064,41.064,0,0,0-7.713,12.287c-1.4,3.42-2.823,6.861-4.244,10.274-1.478,2.722-3.3,4.047-5.585,4.047-2.58,0-4.7-2.253-6.3-6.7a31.719,31.719,0,0,1-2.005-11.067c0-.941.04-2.159.122-3.6.168-2.005.269-3.735.31-5.278.093-2.221-.233-2.857-.527-3.165a.937.937,0,0,0-.691-.3c-1.056,0-1.455,1.507-1.707,2.981a68.076,68.076,0,0,0-1.184,10.914c0,6.785,1.4,12.617,4.159,17.342,2.688,4.524,5.818,6.818,9.306,6.818,2.893,0,5.387-2.184,7.423-6.516q2.724-6.62,5.373-13.216a21.4,21.4,0,0,1,5.524-6.837c2.616-2.3,4.719-3.4,6.193-3.3,1.013.069,2.1,1.207,3.145,3.3a34.927,34.927,0,0,0,4.471,7.107c4.176,4.554,9.721,6.743,16.414,6.482a18.936,18.936,0,0,0,8.98-2.85,23.633,23.633,0,0,0,6.518-4.945c3.551-4.145,5.051-8.509,4.453-12.978-.425-3.018-2.34-6.522-5.692-10.418" transform="translate(-465.087 -378.716)" fill="#fff"/>
      </g>
      <g id="Group_3320" data-name="Group 3320" transform="translate(364.583 276.376)">
        <path id="Path_3320" data-name="Path 3320" d="M505.97,371.279l.006,0q3.586,1.855,7.237,3.712l.389.2.274-.342a11.88,11.88,0,0,0,2.655-7.634c0-1.073-1.119-2.112-3.528-3.271a30,30,0,0,1-6-3.385l-.634-.537-.233.8c-1.378,4.732-1.924,6.567-2.138,7.266l-.172-.033v.646c0,.955.721,1.823,2.142,2.579" transform="translate(-503.828 -360.023)" fill="#fff"/>
      </g>
      <g id="Group_3321" data-name="Group 3321" transform="translate(394.082 276.786)">
        <path id="Path_3321" data-name="Path 3321" d="M656.283,410.4h0c-.883-2.314-1.678-3.346-2.576-3.346a1.027,1.027,0,0,0-.9.569,12.086,12.086,0,0,0-1.375,7.2,4.574,4.574,0,0,0,1.161,2.52c.849,1.126.942,1.6.942,1.747,0,0-.02.434-1.684,1.039a8.592,8.592,0,0,1-2.787.588,7.547,7.547,0,0,1-6.146-3.281c1.208-4.063,1.365-4.953,1.365-5.271,0-1.131-.68-1.23-1.041-1.2a2.9,2.9,0,0,0-.6.227l-.128.091a17.068,17.068,0,0,0-3.831,5.3c-2.277,5.07-5.476,7.535-9.776,7.535-3.06,0-5.386-1.632-7.107-4.989.29-1.8.431-2.745.47-3.136.045-.434.065-.783.065-1.044,0-1.379-.764-1.529-1.095-1.529-.266,0-.672.092-1.665.774-6.13,4.169-10.447,6.795-12.833,7.8-3.83,1.652-8.773,2.491-14.69,2.491-2.576,0-4.97-1.388-7.125-4.129-2.567-3.171-4.423-7.791-5.514-13.735a197.711,197.711,0,0,0-5.523-23.567c-7.417-22.758-9-22.758-9.848-22.758a1.19,1.19,0,0,0-1.007.613l-1.217,7.634.037.118c1.936,6.3,3.874,12.136,5.755,17.328,2.413,7.2,3.718,11.293,3.88,12.175l1.077,5.568a44.411,44.411,0,0,1-10.122,12.478c-1.431,1.267-3.748,3.066-6.884,5.345a57.084,57.084,0,0,1-12.8,6.86c-3.711,1.412-6.166,2.129-7.291,2.129-4.735,0-7.147-2.039-7.377-6.235-.283-4.575,2.215-11.992,7.423-22.043a8.069,8.069,0,0,0,1.112-3.4c0-.809-.47-1.1-.911-1.1-.546,0-1.32.353-2.938,2.984-5.587,9.358-8.421,17.835-8.421,25.2,0,9.631,3.343,14.514,9.935,14.514,6.025,0,13.435-3.155,22.023-9.379,7.318-5.331,12.563-10.35,15.6-14.92a19.979,19.979,0,0,0,2.238-4.982c2.234,9.049,4.505,14.775,6.926,17.477,3.308,3.688,7,5.558,10.975,5.558a33.528,33.528,0,0,0,16.085-4.455A84.143,84.143,0,0,0,618,423.119a10.1,10.1,0,0,0,2.74,7.495,9.628,9.628,0,0,0,6.992,2.689c3.836,0,6.772-1.386,8.726-4.122a42.791,42.791,0,0,0,2.954-4.67c.888,1.037,1.768,2.1,2.673,3.208a8.024,8.024,0,0,0,5.56,2.245c6.512,0,9.813-4.613,9.813-13.711a16.542,16.542,0,0,0-1.178-5.85" transform="translate(-524.362 -360.308)" fill="#fff"/>
      </g>
      <g id="Group_3322" data-name="Group 3322" transform="translate(264.621 354.396)">
        <path id="Path_3322" data-name="Path 3322" d="M434.573,428.036c4.4-3.639,6.635-6.115,6.842-7.572a1.978,1.978,0,0,0-1.8-2.557,3.558,3.558,0,0,0-2.077.32c-.207.106-.351.18-.461.226.063-.182.139-.4.23-.687.927-2.566,2.372-3.669,4.425-3.392,1.036.155,2.376.655,1.984,3.459a10.872,10.872,0,0,1-2.816,5.335,20.475,20.475,0,0,1-6.248,4.945,4.463,4.463,0,0,0-.409.21c.091-.088.207-.182.329-.287" transform="translate(-434.244 -414.333)" fill="#fff"/>
      </g>
      <g id="Group_3323" data-name="Group 3323" transform="translate(115.26 287.965)">
        <path id="Path_3323" data-name="Path 3323" d="M330.6,381.793c4.4-3.639,6.635-6.115,6.842-7.572a1.978,1.978,0,0,0-1.8-2.557,3.558,3.558,0,0,0-2.077.32c-.207.106-.351.18-.461.226.063-.182.139-.4.23-.687.927-2.566,2.372-3.669,4.425-3.392,1.036.155,2.376.655,1.984,3.459a10.872,10.872,0,0,1-2.816,5.335,20.474,20.474,0,0,1-6.248,4.945,4.432,4.432,0,0,0-.409.21c.091-.088.207-.182.329-.287" transform="translate(-330.273 -368.09)" fill="#fff"/>
      </g>
      <g id="Group_3324" data-name="Group 3324" transform="translate(38.219 352.747)">
        <path id="Path_3324" data-name="Path 3324" d="M276.973,426.887c4.4-3.637,6.635-6.114,6.842-7.572a1.978,1.978,0,0,0-1.8-2.556,3.558,3.558,0,0,0-2.077.32c-.207.1-.35.18-.461.226.063-.182.139-.4.23-.687.927-2.567,2.372-3.669,4.425-3.392,1.036.155,2.376.655,1.984,3.459a10.877,10.877,0,0,1-2.816,5.335,20.447,20.447,0,0,1-6.248,4.943c-.157.072-.293.144-.409.211.09-.088.207-.182.329-.289" transform="translate(-276.644 -413.185)" fill="#fff"/>
      </g>
      <g id="Group_3325" data-name="Group 3325" transform="translate(344.207 354.396)">
        <path id="Path_3325" data-name="Path 3325" d="M489.973,428.036c4.4-3.639,6.635-6.115,6.842-7.572a1.978,1.978,0,0,0-1.8-2.557,3.558,3.558,0,0,0-2.077.32c-.207.106-.351.18-.461.226.063-.182.139-.4.23-.687.927-2.566,2.372-3.669,4.425-3.392,1.036.155,2.376.655,1.984,3.459a10.872,10.872,0,0,1-2.816,5.335,20.474,20.474,0,0,1-6.248,4.945,4.463,4.463,0,0,0-.409.21c.091-.088.207-.182.329-.287" transform="translate(-489.644 -414.333)" fill="#fff"/>
      </g>
      <g id="Group_3326" data-name="Group 3326" transform="translate(405.906 254.463)">
        <path id="Path_3326" data-name="Path 3326" d="M576.457,344.786a8.566,8.566,0,0,0-1.263.435c-12.179,4.637-27.405,10.626-39.574,15.285-1.784.69-1.557.524-2.316,2.352-.277.595-.424,1.287-.648,1.88a.7.7,0,0,0-.056.372,1.684,1.684,0,0,0,.287.335c.417-.154.826-.335,1.236-.488,4.71-1.938,22.067-9.417,26.857-11.382,7.589-3.051,5.736-1.837,13.383-4.884a3.034,3.034,0,0,0,1.9-1.771c.178-.45.371-.866.568-1.307a.773.773,0,0,0-.049-.748.352.352,0,0,0-.326-.078" transform="translate(-532.593 -344.769)" fill="#fff"/>
      </g>
      <g id="Group_3327" data-name="Group 3327" transform="translate(334.483 257.621)">
        <path id="Path_3327" data-name="Path 3327" d="M526.739,346.984a8.56,8.56,0,0,0-1.263.435C513.3,352.057,498.071,358.046,485.9,362.7c-1.784.69-1.557.524-2.316,2.352-.277.595-.424,1.287-.648,1.88a.7.7,0,0,0-.056.372,1.684,1.684,0,0,0,.287.335c.417-.154.826-.335,1.235-.488,4.71-1.938,22.067-9.417,26.857-11.382,7.589-3.051,5.736-1.837,13.383-4.884a3.034,3.034,0,0,0,1.9-1.771c.178-.45.371-.866.567-1.307a.774.774,0,0,0-.049-.748.352.352,0,0,0-.326-.078" transform="translate(-482.875 -346.967)" fill="#fff"/>
      </g>
      <g id="Group_3328" data-name="Group 3328" transform="translate(163.523 279.086)">
        <path id="Path_3328" data-name="Path 3328" d="M407.733,361.926a8.571,8.571,0,0,0-1.263.435C394.291,367,379.065,372.988,366.9,377.646c-1.784.69-1.557.524-2.316,2.352-.277.595-.424,1.287-.648,1.88a.7.7,0,0,0-.056.372,1.685,1.685,0,0,0,.287.335c.417-.154.826-.335,1.235-.488,4.711-1.938,22.067-9.417,26.857-11.382,7.589-3.051,5.736-1.837,13.383-4.884a3.034,3.034,0,0,0,1.9-1.771c.178-.45.371-.866.567-1.307a.774.774,0,0,0-.049-.748.352.352,0,0,0-.326-.078" transform="translate(-363.869 -361.909)" fill="#fff"/>
      </g>
      <g id="Group_3329" data-name="Group 3329" transform="translate(70.169 273.623)">
        <path id="Path_3329" data-name="Path 3329" d="M342.749,358.123a8.572,8.572,0,0,0-1.263.435c-12.179,4.637-27.405,10.626-39.575,15.285-1.784.69-1.557.524-2.316,2.352-.277.595-.424,1.287-.648,1.88a.7.7,0,0,0-.056.372,1.68,1.68,0,0,0,.287.335c.417-.154.826-.335,1.235-.488,4.711-1.938,22.067-9.417,26.857-11.382,7.589-3.051,5.736-1.837,13.383-4.884a3.034,3.034,0,0,0,1.9-1.771c.178-.45.371-.866.567-1.307a.774.774,0,0,0-.049-.748.352.352,0,0,0-.326-.078" transform="translate(-298.885 -358.106)" fill="#fff"/>
      </g>
      <g id="Group_3330" data-name="Group 3330" transform="translate(464.851 267.96)">
        <path id="Path_3330" data-name="Path 3330" d="M617.489,354.181a8.568,8.568,0,0,0-1.263.435c-12.179,4.637-27.405,10.626-39.575,15.285-1.784.69-1.557.524-2.316,2.352-.277.595-.424,1.287-.648,1.88a.7.7,0,0,0-.056.372,1.681,1.681,0,0,0,.287.335c.417-.154.826-.335,1.235-.488,4.711-1.938,22.067-9.417,26.857-11.382,7.589-3.051,5.736-1.837,13.383-4.884a3.034,3.034,0,0,0,1.9-1.771c.178-.45.371-.866.567-1.307a.773.773,0,0,0-.049-.748.352.352,0,0,0-.326-.078" transform="translate(-573.625 -354.164)" fill="#fff"/>
      </g>
      <g id="Group_3331" data-name="Group 3331" transform="translate(186.343 275.141)">
        <path id="Path_3331" data-name="Path 3331" d="M434.526,379.433c2.053-6.348-4.8-15.814,2.968-20.27,3.232,1.227,5.483,5.176,3.748,8.457-1.379-1.936-4.492-7.282-6.577-3.3.451,6.124,3.148,12.693-.181,18.532l-1.337-.134c-1.258-2.942-2.189-6.044-3.984-8.734-7.51,12.579-36.655,19.3-49.409,23.5,11.442-5.947,37.428-14.371,47.389-22.811-2.892-2.06-4.008-6.421-1.059-8.907,4.893,2.978,5.495,9.273,8.441,13.67" transform="translate(-379.754 -359.163)" fill="#fff"/>
      </g>
      <g id="Group_3332" data-name="Group 3332" transform="translate(478.733 279.132)">
        <path id="Path_3332" data-name="Path 3332" d="M587.338,362.55c-2.452,7.9-3.2,12.681-2.3,14.613,1.177,2.475,2.931,2.273,4.208,1.678a5.19,5.19,0,0,0,2.268-2.036c.165-.293.283-.493.379-.638.069.267.149.6.263,1.01.908,3.849.03,6.335-2.682,7.624-1.376.635-3.4,1.086-5.15-2.623-1.011-2.153-1.281-5.077-.8-8.71a29.552,29.552,0,0,1,3.665-10.945c.135-.21.24-.411.335-.582-.045.182-.115.385-.18.609" transform="translate(-583.288 -361.941)" fill="#fff"/>
      </g>
      <g id="Group_3333" data-name="Group 3333" transform="translate(168.708 256.315)">
        <path id="Path_3333" data-name="Path 3333" d="M371.528,346.667c-2.452,7.9-3.2,12.681-2.3,14.613,1.177,2.475,2.931,2.273,4.208,1.678a5.19,5.19,0,0,0,2.268-2.036c.165-.293.283-.493.379-.638.069.267.149.6.263,1.01.908,3.85.03,6.335-2.682,7.624-1.376.635-3.4,1.086-5.15-2.623-1.011-2.153-1.281-5.077-.8-8.71a29.553,29.553,0,0,1,3.665-10.945c.135-.21.24-.411.335-.582-.045.182-.115.385-.18.609" transform="translate(-367.478 -346.058)" fill="#fff"/>
      </g>
      <g id="Group_3334" data-name="Group 3334" transform="translate(50.436 260.672)">
        <path id="Path_3334" data-name="Path 3334" d="M289.2,349.7c-2.452,7.9-3.2,12.681-2.3,14.613,1.177,2.475,2.931,2.273,4.208,1.678a5.19,5.19,0,0,0,2.268-2.036c.165-.293.283-.493.379-.638.069.267.149.6.263,1.01.908,3.85.03,6.335-2.682,7.624-1.376.635-3.4,1.086-5.15-2.623-1.011-2.153-1.281-5.077-.8-8.71a29.553,29.553,0,0,1,3.665-10.945c.135-.21.24-.411.335-.582-.045.182-.115.385-.18.609" transform="translate(-285.148 -349.091)" fill="#fff"/>
      </g>
      <g id="Group_3335" data-name="Group 3335" transform="translate(120.032 339.735)">
        <path id="Path_3335" data-name="Path 3335" d="M337.644,404.736c-2.452,7.9-3.2,12.681-2.3,14.613,1.177,2.475,2.931,2.273,4.208,1.678a5.19,5.19,0,0,0,2.268-2.036c.165-.293.283-.493.379-.638.069.267.149.6.263,1.01.908,3.85.03,6.335-2.682,7.624-1.376.635-3.4,1.086-5.15-2.623-1.011-2.153-1.281-5.077-.8-8.71a29.554,29.554,0,0,1,3.665-10.945c.135-.21.24-.411.335-.582-.045.182-.115.385-.18.609" transform="translate(-333.594 -404.127)" fill="#fff"/>
      </g>
      <g id="Group_3336" data-name="Group 3336" transform="translate(436.803 345.31)">
        <path id="Path_3336" data-name="Path 3336" d="M558.15,408.617c-2.452,7.9-3.2,12.681-2.3,14.613,1.177,2.475,2.931,2.273,4.208,1.678a5.189,5.189,0,0,0,2.268-2.036c.165-.293.283-.493.379-.638.069.267.149.6.263,1.01.908,3.85.03,6.335-2.682,7.624-1.376.635-3.4,1.086-5.15-2.623-1.011-2.153-1.281-5.077-.8-8.71a29.555,29.555,0,0,1,3.665-10.945c.135-.21.24-.411.335-.582-.045.182-.115.385-.18.609" transform="translate(-554.1 -408.008)" fill="#fff"/>
      </g>
      <g id="Group_3337" data-name="Group 3337" transform="translate(50.541 141.736)">
        <path id="Path_3337" data-name="Path 3337" d="M770.65,272.475a81.513,81.513,0,0,1-3.429,16c-.213.621-.669,1.224-1.339,1.126-6.726-.914-25.8,28.082-34.628,35.217-5.192,4.195-11.707,1.909-13.078-4.555a60.429,60.429,0,0,1-.767-16.8,54.069,54.069,0,0,0-.18-6.057c-1.093.049-3.086,1.845-4.784,3.624-1.714,1.778-3.15,3.558-3.15,3.558-1.144,1.518-2.27,3.037-3.413,4.555-4.62,6.939-9.044,14.041-16.13,18.971a7.431,7.431,0,0,1-3.593,1.536c-3.314,1.665-8.016-1.715-8.718-6.6a.4.4,0,0,1-.113-.424,18.389,18.389,0,0,1-1.225-7.021c-.75-3.283-.211-6.63-.521-9.927a17.214,17.214,0,0,0-.947-5.209c-1.339-3.281-1.813-3.576-5.291-2.791-4.946,1.11-9.568,3.15-14.351,4.751-84.833,29.388-187.317,37.111-225.5,5.682-8.441-7.1-11.951-17.632-12.408-18.547-2.123-2.106-3.87-1.11-5.535.636-.685.72-2.122,2.123-2.122,2.123s-15.854,27.772-35.61,35.348a70.144,70.144,0,0,1-23,5.044c-9.928.474-19.822-.6-29.715-1.73-13.192-1.454-36.115-9.339-35.87-10.286.293-1.128,1.485-1.062,2.4-.931,4.522.669,23.9,1.388,29.062,1.175a160.857,160.857,0,0,0,26.677-2.857c1.763-.375,1.96-.473,1.96-.506.833-.18,30.629-6.5,39.968-12.882a50.268,50.268,0,0,0,20.1-19.315c2.27-3.886,12.229-20.279,17.96-19.022,1.175.409,1.175,1.731,1.11,2.564-.164,2.122.521,4.066.882,6.057,1.273,7.038,5.779,11.919,11.264,16.1,63.773,48.948,237.588-10.188,238.47-10.432,2.873-.816,9.045-1.926,9.027,3.56-.033,4.407-.147,8.783-.408,13.175a42,42,0,0,0,.865,10.286.56.56,0,0,1,.131.213c.425.7.866,1.421,1.29,2.122a.387.387,0,0,0-.375.033,2.989,2.989,0,0,0,.375-.033H686c.669.458,1.337.915,2.008,1.356a.376.376,0,0,0-.409-.017,3.114,3.114,0,0,0,.409.017c.555-.017,1.126-.049,1.7-.066.947-.473,1.893-.947,2.84-1.4,7.9-5.845,19.9-28.359,29.862-33.584,1.926-1.339,3.02-.49,3.591,1.632,1.649,6.271.376,12.6.751,18.891.18,2.955.115,5.992,1.224,8.865,1,2.612,2.367,3.265,4.981,1.911a30.3,30.3,0,0,0,6.906-5.192c6.825-6.612,19.3-27.838,28.49-31.609,1.878-.817,2.482.293,2.3,1.665" transform="translate(-285.222 -266.299)" fill="#fff"/>
      </g>
    </g>
  </g>
</svg>
