<svg xmlns="http://www.w3.org/2000/svg" width="118" height="49.703" viewBox="0 0 118 49.703">
  <g id="Group_54567" data-name="Group 54567" transform="translate(-250.04 -167.636)">
    <g id="Group_3340" data-name="Group 3340" transform="translate(250.04 167.636)">
      <g id="Group_3288" data-name="Group 3288" transform="translate(22.253 39.57)">
        <path id="Path_3288" data-name="Path 3288" d="M322.863,296.43a.691.691,0,0,1-.319-.174h0a9.227,9.227,0,0,1-2.147-3.318l.909-.263a8.565,8.565,0,0,0,1.911,2.925l-.313.339.349-.307.077.542Z" transform="translate(-320.397 -292.675)" fill="#805c41"/>
      </g>
      <g id="Group_3289" data-name="Group 3289" transform="translate(25.229 37.58)">
        <path id="Path_3289" data-name="Path 3289" d="M336.219,289.959a7.014,7.014,0,0,1-1.229-.117c-2.153-.389-4.385-1.632-5.193-2.892l.8-.511c.658,1.027,2.706,2.136,4.564,2.472a3.372,3.372,0,0,0,2.528-.278l.568.757A3.37,3.37,0,0,1,336.219,289.959Z" transform="translate(-329.797 -286.439)" fill="#805c41"/>
      </g>
      <g id="Group_3290" data-name="Group 3290" transform="translate(21.099 27.106)">
        <path id="Path_3290" data-name="Path 3290" d="M317.488,262.751a50.564,50.564,0,0,1-.528-9.456l.945.041a49.582,49.582,0,0,0,.516,9.256Z" transform="translate(-316.919 -253.295)" fill="#805c41"/>
      </g>
      <g id="Group_3291" data-name="Group 3291" transform="translate(23.493 27.699)">
        <path id="Path_3291" data-name="Path 3291" d="M325.116,262.743a35.107,35.107,0,0,1-.794-7.562l.946,0a34.815,34.815,0,0,0,.768,7.337Z" transform="translate(-324.322 -255.181)" fill="#805c41"/>
      </g>
      <g id="Group_3292" data-name="Group 3292" transform="translate(3.845 0)">
        <path id="Path_3292" data-name="Path 3292" d="M262.535,179.577l-.306.112,0-.328c.016-1.382.009-3.245.04-4.607l.139-.059,4.263-1.8c2.38-1.019,6.132-2.543,8.551-3.54,1.432-.573,2.86-1.158,4.3-1.718-1.4.652-2.808,1.279-4.212,1.918-2.405,1.069-6.08,2.708-8.469,3.732l-4.247,1.837.141-.212c-.005.742,0,1.485-.018,2.227l-.032,2.227-.3-.216c5.291-1.893,9.969-3.475,15.293-5.226" transform="translate(-262.229 -167.637)" fill="#040506"/>
      </g>
      <g id="Group_3293" data-name="Group 3293" transform="translate(3.836 8.686)">
        <path id="Path_3293" data-name="Path 3293" d="M278.467,197.691c-3.78.912-8.034,1.758-11.858,2.576l-4.124.862-.286.06c0-.183,0-1.2,0-1.4v-.177l.17-.051c5.336-1.6,10.321-3.029,15.708-4.468-2.315.791-5.084,1.663-7.452,2.418-2.7.855-5.409,1.684-8.118,2.507l.17-.228V200.9l-.286-.233,4.13-.833c3.843-.756,8.107-1.487,11.947-2.14" transform="translate(-262.198 -195.091)" fill="#040506"/>
      </g>
      <g id="Group_3294" data-name="Group 3294" transform="translate(3.837 12.836)">
        <path id="Path_3294" data-name="Path 3294" d="M278.641,208.181c-4,.876-7.921,1.619-11.971,2.381l-4.188.765.195-.233q0,2.823-.033,5.646c-.024,1.882-.051,3.764-.1,5.646l-.2.246,0-.246c-.1-3.763-.128-7.527-.134-11.292v-.2l.2-.035c5.432-.979,10.8-1.9,16.243-2.679" transform="translate(-262.203 -208.181)" fill="#040506"/>
      </g>
      <g id="Group_3295" data-name="Group 3295" transform="translate(21.2)">
        <path id="Path_3295" data-name="Path 3295" d="M319.069,173.976c3.863,1.269,7.187,2.462,11.023,3.811l3.83,1.363-.3.214c-.017-1.485-.052-2.969-.053-4.454l.141.213c-3.9-1.7-8.647-3.806-12.518-5.568-1.382-.64-2.769-1.267-4.145-1.92,1.416.56,2.822,1.144,4.233,1.717,3.933,1.625,8.711,3.655,12.617,5.341l.138.059c.031,1.536.025,3.072.037,4.608l0,.325-.3-.111c-5.034-1.835-9.729-3.637-14.7-5.6" transform="translate(-317.045 -167.636)" fill="#040506"/>
      </g>
      <g id="Group_3296" data-name="Group 3296" transform="translate(23.527 8.562)">
        <path id="Path_3296" data-name="Path 3296" d="M324.4,194.7l.3,2.92,14.261,3.076-.325-1.175Z" transform="translate(-324.404 -194.698)" fill="#040506"/>
      </g>
      <g id="Group_3297" data-name="Group 3297" transform="translate(4.006 8.686)">
        <path id="Path_3297" data-name="Path 3297" d="M278.445,195.091l.391,2.6-16.043,3.272-.056-1.4Z" transform="translate(-262.737 -195.091)" fill="#040506"/>
      </g>
      <g id="Group_3298" data-name="Group 3298" transform="translate(23.527 8.562)">
        <path id="Path_3298" data-name="Path 3298" d="M324.707,197.618c3.42.587,7.122,1.328,10.543,2.017l3.682.761-.287.233v-1.109l.163.226c-3.277-1.1-7.744-2.637-11-3.8-1.214-.445-2.2-.788-3.407-1.247,1.243.359,2.241.657,3.479,1.03,3.3,1.024,7.8,2.473,11.075,3.565l.163.054c0,.081,0,1.168,0,1.282v.294l-.287-.062c-4.685-1-9.49-2.086-14.126-3.243" transform="translate(-324.404 -194.698)" fill="#040506"/>
      </g>
      <g id="Group_3299" data-name="Group 3299" transform="translate(24.002 13.226)">
        <path id="Path_3299" data-name="Path 3299" d="M340.144,211.764c-.011,1.4-.026,2.8-.051,4.208l-.366-.132c-.022-1.229-.037-2.462-.044-3.692-4.756-.838-9.067-1.634-13.776-2.71,4.852.651,9.232,1.4,14.047,2.289Z" transform="translate(-325.907 -209.439)" fill="#040506"/>
      </g>
      <g id="Group_3300" data-name="Group 3300" transform="translate(18.573 0.269)">
        <path id="Path_3300" data-name="Path 3300" d="M313.47,192.889c0-.158-.053-15.2-2.276-22.264l-1.333,2.128c.574,1.163,2.621,6.27,2.469,19.692l-.946-.011c.169-14.906-2.447-19.41-2.473-19.454l-.15-.249.153-.249s1.792-2.861,2-3.2l.5-.8.339.879c2.6,6.733,2.658,22.837,2.659,23.519Z" transform="translate(-308.76 -168.49)" fill="#805c41"/>
      </g>
      <g id="Group_3301" data-name="Group 3301" transform="translate(16.032 24.025)">
        <path id="Path_3301" data-name="Path 3301" d="M305.741,244.532a2.986,2.986,0,0,1,.782.109,28.372,28.372,0,0,0,7.1,1.207c.451.016.921.025,1.4.025.746,0,1.5-.021,2.183-.057-.252.252-.487.479-.662.647l-.232.224a32.151,32.151,0,0,1-3.83.256,15.173,15.173,0,0,1-5.593-.943,8.848,8.848,0,0,0-2.12-.538h-.016c-.1-.008-.212-.011-.319-.011a5.149,5.149,0,0,0-1.155.137,3.552,3.552,0,0,1,2.247-1.046c.071-.006.144-.009.216-.009m0-.946c-.1,0-.2,0-.3.012a4.623,4.623,0,0,0-3.648,2.365c-.319.516-.665,1.245-.938,1.787,0,0,0,.006,0,.006a7.2,7.2,0,0,1,3.572-1.359c.083,0,.167,0,.251.009,1.811.161,3.175,1.484,7.8,1.484a33.512,33.512,0,0,0,4.28-.305,24.124,24.124,0,0,0,2.715-2.964,24.638,24.638,0,0,1-4.455.306c-.448,0-.906-.008-1.363-.024a27.639,27.639,0,0,1-6.887-1.174,3.932,3.932,0,0,0-1.03-.142" transform="translate(-300.858 -243.586)" fill="#805c41"/>
      </g>
      <g id="Group_3302" data-name="Group 3302" transform="translate(0.539 26.259)">
        <path id="Path_3302" data-name="Path 3302" d="M287.81,250.951c-.015.158-1.1,2.807-1.384,3.5-.05.122-.143.269-.3.219-.43-.129-.749.14-1.108.269a22.712,22.712,0,0,0-3.525,2.886c-1.334,1.355-2.675,2.7-4.123,3.944-.172.147-.351.322-.351.322a25.671,25.671,0,0,1-2.94,1.951s-5.9,2.291-7.82-1.061a4.507,4.507,0,0,1-.656-1.907c-.047-.459-.09-.914-.115-1.373-.05-.814-.531-1.069-1.266-.638a10.284,10.284,0,0,0-1.9,1.556,19.615,19.615,0,0,0-3.238,4.608,8.588,8.588,0,0,1-2.137,2.757,2.641,2.641,0,0,1-4.274-.853,6.25,6.25,0,0,1-.652-1.771,13.81,13.81,0,0,1-.247-3.435,12.57,12.57,0,0,1,3.976-7.612l.176.362a11.563,11.563,0,0,0-2.657,5.8,6.469,6.469,0,0,0,.452,2.933,2.852,2.852,0,0,0,1.251,1.158,2.791,2.791,0,0,0,2.062-.362,9.545,9.545,0,0,0,2.861-3.284,18.71,18.71,0,0,1,5.281-5.644c1.122-.792,1.646-.273,1.868.376a13.593,13.593,0,0,1,.093,2.126,3.576,3.576,0,0,0,.9,2.18,3.868,3.868,0,0,0,3.7,1.079c.47-.065,1.606-.377,1.606-.377a10.435,10.435,0,0,0,2.427-1.327c1.954-.774,9.078-7.92,11.319-8.741.165-.061.57-.19.731-.032.054.057.057.176-.011.394" transform="translate(-251.748 -250.481)" fill="#183d33"/>
      </g>
      <g id="Group_3303" data-name="Group 3303" transform="translate(45.666 37.523)">
        <path id="Path_3303" data-name="Path 3303" d="M394.434,286.281l.028.02a.087.087,0,0,0-.028-.02" transform="translate(-394.434 -286.281)" fill="#133c2a"/>
      </g>
      <g id="Group_3304" data-name="Group 3304" transform="translate(2.977 26.7)">
        <path id="Path_3304" data-name="Path 3304" d="M261.84,257l-2.205-1.7a.412.412,0,0,1-.074-.578l1.946-2.518a.412.412,0,0,1,.578-.074l2.205,1.7a.412.412,0,0,1,.074.578l-1.946,2.518a.412.412,0,0,1-.578.074" transform="translate(-259.475 -252.038)" fill="#183d33"/>
      </g>
      <g id="Group_3305" data-name="Group 3305" transform="translate(7.595 26.022)">
        <path id="Path_3305" data-name="Path 3305" d="M276.478,254.854l-2.205-1.7a.412.412,0,0,1-.074-.578l1.946-2.518a.412.412,0,0,1,.578-.074l2.205,1.7a.412.412,0,0,1,.074.578l-1.946,2.518a.412.412,0,0,1-.578.074" transform="translate(-274.113 -249.893)" fill="#183d33"/>
      </g>
      <g id="Group_3306" data-name="Group 3306" transform="translate(33.701 44.649)">
        <path id="Path_3306" data-name="Path 3306" d="M359.155,309.94l1.289,1.137-1.4,1.586-1.289-1.137Zm-.047-1.166a.412.412,0,0,0-.309.139l-2.105,2.387a.412.412,0,0,0,.037.582l2.09,1.843a.412.412,0,0,0,.582-.036l2.105-2.387a.412.412,0,0,0-.037-.582l-2.09-1.843a.411.411,0,0,0-.273-.1" transform="translate(-356.591 -308.774)" fill="#805c41"/>
      </g>
      <g id="Group_3307" data-name="Group 3307" transform="translate(38.366 44.272)">
        <path id="Path_3307" data-name="Path 3307" d="M373.9,308.747l1.289,1.137-1.4,1.586-1.289-1.137Zm-.047-1.166a.412.412,0,0,0-.309.139l-2.105,2.387a.412.412,0,0,0,.037.582l2.09,1.843a.412.412,0,0,0,.582-.036l2.105-2.387a.412.412,0,0,0-.037-.582l-2.09-1.843a.411.411,0,0,0-.273-.1" transform="translate(-371.338 -307.581)" fill="#805c41"/>
      </g>
      <g id="Group_3308" data-name="Group 3308" transform="translate(34.484 20.251)">
        <path id="Path_3308" data-name="Path 3308" d="M364.078,234.158a2.506,2.506,0,1,1-2.506-2.506,2.506,2.506,0,0,1,2.506,2.506" transform="translate(-359.066 -231.652)" fill="#183d33"/>
      </g>
      <g id="Group_3309" data-name="Group 3309" transform="translate(24.623 36.523)">
        <path id="Path_3309" data-name="Path 3309" d="M419.882,283.016a34.6,34.6,0,0,0-4.474,5.79c-.454.688-.814,1.406-1.292,2.085a4.241,4.241,0,0,1-3.153,1.858,2.033,2.033,0,0,1-1.184-.511,5.547,5.547,0,0,1-1.526-1.981,5.151,5.151,0,0,1-.484-2.465l.359.123c-1.25,1.753-3.466,5.014-5.61,5.557-2.812.342-4.166-2.54-4.54-4.867a14.575,14.575,0,0,1-.236-2.369l.439.309c-3.027,1.109-6.091,2.059-9.186,2.929-13.122,3.574-36.873,8.508-46.753-3.542l-.094-.118-.024-.029-.01-.009a.172.172,0,0,0-.017-.017c-.03-.033-.027,0,.088.012a.244.244,0,0,0,.125-.024c-2,2.812-4.642,5.773-8.192,6.677a7.043,7.043,0,0,1-6.955-2.472l.754-.7c3.827,4.219,8.334,1.888,11.562-1.7a20.941,20.941,0,0,0,1.475-1.816,6.311,6.311,0,0,1,.615-.8.932.932,0,0,1,1.428.178c9.334,11.738,33.1,6.941,45.8,3.634,3.235-.87,6.45-1.842,9.6-2.967v.464c.033,2.6.729,6.943,4.046,6.721a7.016,7.016,0,0,0,2.954-2.222A30.529,30.529,0,0,0,407.8,287.7l.413-.591-.054.714A5.16,5.16,0,0,0,409.97,292a1.834,1.834,0,0,0,2.134.236c1.552-.619,2.316-2.185,3.179-3.513a34.7,34.7,0,0,1,4.6-5.709" transform="translate(-327.163 -283.016)" fill="#805c41"/>
      </g>
      <g id="Group_3310" data-name="Group 3310" transform="translate(0 31.966)">
        <path id="Path_3310" data-name="Path 3310" d="M285.206,268.572a6.96,6.96,0,0,0-2.818,1.9c-.835.789-1.638,1.616-2.466,2.423a25.869,25.869,0,0,1-5.5,4.29c-3.537,2.018-9.211,2.536-11.291-1.738a7.285,7.285,0,0,1-.593-1.75l.455.379c-.779.081-1.443,1.218-1.905,1.882-1.488,2.247-2.69,4.989-5.173,6.369-2.145,1.181-4.076-.157-5.053-2.114-1.8-3.779-.386-8.231,1.941-11.432a14.14,14.14,0,0,0-2.226,7.432c.041,2.311,1.028,5.427,3.628,5.766a4.163,4.163,0,0,0,2.506-1.3,30.224,30.224,0,0,0,3.594-5.228c.708-1.058,1.572-2.5,3.084-2.315.829,5.531,6.665,5.5,10.7,3.408a27.461,27.461,0,0,0,5.535-3.98c.87-.752,1.721-1.532,2.608-2.276a6.663,6.663,0,0,1,2.979-1.716" transform="translate(-250.04 -268.572)" fill="#805c41"/>
      </g>
      <g id="Group_3337" data-name="Group 3337" transform="translate(11.099 31.249)">
        <path id="Path_3337" data-name="Path 3337" d="M392.116,267.655a17.862,17.862,0,0,1-.755,3.514c-.047.136-.147.269-.295.247-1.481-.2-5.681,6.167-7.625,7.734a1.712,1.712,0,0,1-2.88-1,13.235,13.235,0,0,1-.169-3.689,11.826,11.826,0,0,0-.04-1.33c-.241.011-.679.405-1.053.8s-.694.781-.694.781c-.252.333-.5.667-.752,1a14.419,14.419,0,0,1-3.552,4.166,1.639,1.639,0,0,1-.791.337c-.73.366-1.765-.377-1.92-1.449a.088.088,0,0,1-.025-.093,4.029,4.029,0,0,1-.27-1.542,16.427,16.427,0,0,1-.115-2.18,3.771,3.771,0,0,0-.208-1.144c-.295-.721-.4-.785-1.165-.613a32.6,32.6,0,0,0-3.16,1.043c-18.681,6.454-41.248,8.15-49.657,1.248a10.379,10.379,0,0,1-2.732-4.073c-.468-.462-.852-.244-1.219.14-.151.158-.467.466-.467.466s-3.491,6.1-7.841,7.763a15.481,15.481,0,0,1-5.066,1.108,40.827,40.827,0,0,1-6.543-.38c-2.9-.319-7.953-2.051-7.9-2.259.065-.248.327-.233.529-.2,1,.147,5.263.3,6.4.258a35.515,35.515,0,0,0,5.874-.628c.388-.082.431-.1.431-.111.184-.039,6.745-1.427,8.8-2.829a11.057,11.057,0,0,0,4.426-4.242c.5-.853,2.693-4.453,3.955-4.177.259.09.259.38.245.563a5.109,5.109,0,0,0,.194,1.33,5.761,5.761,0,0,0,2.48,3.535c14.043,10.749,52.318-2.237,52.512-2.291.633-.179,1.992-.423,1.988.782-.007.968-.032,1.929-.09,2.893a9.2,9.2,0,0,0,.19,2.259.123.123,0,0,1,.029.047l.284.466a.085.085,0,0,0-.083.007.66.66,0,0,0,.083-.007h0c.147.1.295.2.442.3a.083.083,0,0,0-.09,0,.69.69,0,0,0,.09,0c.122,0,.248-.011.374-.014.208-.1.417-.208.625-.308,1.74-1.284,4.383-6.228,6.576-7.375.424-.294.665-.108.791.358a20.537,20.537,0,0,1,.165,4.148,6.314,6.314,0,0,0,.27,1.947c.219.574.521.717,1.1.42a6.67,6.67,0,0,0,1.521-1.14c1.5-1.452,4.25-6.113,6.274-6.941.413-.18.547.064.507.366" transform="translate(-285.222 -266.299)" fill="#183d33"/>
      </g>
    </g>
  </g>
</svg>
